<svg version="1.1" xmlns="http://www.w3.org/2000/svg" xmlns:xlink="http://www.w3.org/1999/xlink" width="63.22855" height="184.10596" viewBox="0,0,63.22855,184.10596"><g transform="translate(-208.38572,-62.21263)"><g data-paper-data="{&quot;isPaintingLayer&quot;:true}" fill="none" fill-rule="nonzero" stroke="none" stroke-width="none" stroke-linecap="none" stroke-linejoin="miter" stroke-miterlimit="10" stroke-dasharray="" stroke-dashoffset="0" font-family="none" font-weight="none" font-size="none" text-anchor="none" style="mix-blend-mode: normal"><path d="M252.04861,62.21263v0z" fill="none" stroke="#ebe300" stroke-width="4" stroke-linecap="butt"/><g><path d="M214.60927,143.569l5.60491,-8.25836c0,0 3.21936,9.74655 6.73744,12.73114c3.9709,3.36874 14.74827,5.19997 14.74827,5.19997l-2.25099,9.74975c0,0 -3.07798,0.41892 -4.87611,2.22425c-2.70127,2.71209 -2.65044,7.22081 -6.94804,5.9319c-4.2976,-1.2889 3.33548,-6.61057 0.93832,-7.73429c-2.39717,-1.12373 -5.23072,4.90358 -6.97561,3.27667c-1.74489,-1.62691 3.57936,-5.58582 1.62362,-8.26678c-1.95574,-2.68097 -6.56823,4.53384 -7.94718,1.75675c-1.37895,-2.77709 4.4063,-10.16591 3.60105,-10.50949c-1.19659,-0.51055 -3.68899,1.81801 -6.27661,2.48948c-2.58762,0.67147 2.02091,-8.59099 2.02091,-8.59099z" data-paper-data="{&quot;origPos&quot;:null,&quot;origRot&quot;:0}" fill="#ffffff" stroke="#f1ff00" stroke-width="1.5" stroke-linecap="butt"/><path d="M209.80495,163.71914l-0.58174,-9.96379c0,0 8.48802,5.77175 13.09602,5.99743c5.20111,0.25472 14.86563,-4.85432 14.86563,-4.85432l4.1504,9.10487c0,0 -2.18668,2.20634 -2.51395,4.73326c-0.49165,3.79613 2.29378,7.34189 -1.9002,8.93599c-4.19398,1.5941 -1.3788,-7.27489 -3.96462,-6.70682c-2.58583,0.56806 -1.16396,7.07465 -3.5387,6.84641c-2.37474,-0.22824 -0.56142,-6.61044 -3.74518,-7.54648c-3.18376,-0.93604 -2.45011,7.59568 -5.23483,6.23221c-2.78472,-1.36347 -2.69399,-10.74726 -3.54197,-10.52955c-1.26009,0.32352 -1.81955,3.68823 -3.46346,5.79635c-1.64391,2.10813 -3.6274,-8.04556 -3.6274,-8.04556z" data-paper-data="{&quot;origPos&quot;:null,&quot;origRot&quot;:0}" fill="#ffffff" stroke="#f1ff00" stroke-width="1.5" stroke-linecap="butt"/><path d="M240.18769,138.35272v67.29708l-12.04762,38.91879" data-paper-data="{&quot;origPos&quot;:null}" fill="none" stroke="#b8b300" stroke-width="3.5" stroke-linecap="round"/><path d="M253.03848,244.37178l-12.04762,-40.15873" fill="none" stroke="#b8b300" stroke-width="3.5" stroke-linecap="round"/><path d="M216.09244,115.46225c0,-13.9728 11.3272,-25.3 25.3,-25.3c13.9728,0 25.3,11.3272 25.3,25.3c0,13.9728 -11.3272,25.3 -25.3,25.3c-13.9728,0 -25.3,-11.3272 -25.3,-25.3z" data-paper-data="{&quot;origPos&quot;:null}" fill="#fff98d" stroke="#b8b300" stroke-width="2.5" stroke-linecap="butt"/><path d="M236.30832,109.43845c0,-2.66149 2.15756,-4.81905 4.81905,-4.81905c2.66149,0 4.81905,2.15756 4.81905,4.81905c0,2.66149 -2.15756,4.81905 -4.81905,4.81905c-2.66149,0 -4.81905,-2.15756 -4.81905,-4.81905z" data-paper-data="{&quot;origPos&quot;:null}" fill="#b8b300" stroke="#b8b300" stroke-width="0" stroke-linecap="butt"/><path d="M250.62895,109.43845c0,-2.66148 2.15757,-4.81905 4.81905,-4.81905c2.66148,0 4.81905,2.15757 4.81905,4.81905c0,2.66148 -2.15757,4.81905 -4.81905,4.81905c-2.66148,0 -4.81905,-2.15757 -4.81905,-4.81905z" data-paper-data="{&quot;origPos&quot;:null}" fill="#b8b300" stroke="#b8b300" stroke-width="0" stroke-linecap="butt"/><path d="M223.1861,176.24797l15.69841,-29.57143" data-paper-data="{&quot;origPos&quot;:null}" fill="none" stroke="#b8b300" stroke-width="3.5" stroke-linecap="round"/><path d="M256.77339,176.24798l-15.69841,-29.57144" data-paper-data="{&quot;origPos&quot;:null,&quot;index&quot;:null}" fill="none" stroke="#b8b300" stroke-width="3.5" stroke-linecap="round"/><path d="M258.51756,122.33023c0,0 -5.49193,2.57344 -9.00704,2.57344c-4.01727,0 -10.29376,-2.57344 -10.29376,-2.57344" data-paper-data="{&quot;origPos&quot;:null}" fill="none" stroke="#b8b300" stroke-width="2.5" stroke-linecap="round"/><path d="M269.61428,89.00026c0,2.66784 -12.28815,4.83056 -27.44635,4.83056c-15.1582,0 -27.44635,-2.16271 -27.44635,-4.83056c0,-2.66784 12.28815,-4.83056 27.44635,-4.83056c15.1582,0 27.44635,2.16271 27.44635,4.83056z" fill="none" stroke="#ebe300" stroke-width="4" stroke-linecap="butt"/></g></g></g></svg>