<svg version="1.1" xmlns="http://www.w3.org/2000/svg" xmlns:xlink="http://www.w3.org/1999/xlink" width="73.74182" height="157.40634"><g transform="translate(-215.56299,-87.03278)"><g data-paper-data="{&quot;isPaintingLayer&quot;:true}" fill="none" fill-rule="nonzero" stroke="none" stroke-width="none" stroke-linecap="none" stroke-linejoin="miter" stroke-miterlimit="10" stroke-dasharray="" stroke-dashoffset="0" font-family="none" font-weight="none" font-size="none" text-anchor="none" style="mix-blend-mode: normal"><g><path d="M240.90827,136.47325v67.29708l-12.04762,38.91879" data-paper-data="{&quot;origPos&quot;:null}" fill="none" stroke="#000000" stroke-width="3.5" stroke-linecap="round"/><path d="M241.71145,202.33357l12.04762,40.15873" data-paper-data="{&quot;origPos&quot;:null}" fill="none" stroke="#000000" stroke-width="3.5" stroke-linecap="round"/><path d="M216.813,113.58278c0,-13.9728 11.3272,-25.3 25.3,-25.3c13.9728,0 25.3,11.3272 25.3,25.3c0,13.9728 -11.3272,25.3 -25.3,25.3c-13.9728,0 -25.3,-11.3272 -25.3,-25.3z" data-paper-data="{&quot;origPos&quot;:null}" fill="#d4d4d4" stroke="#000000" stroke-width="2.5" stroke-linecap="butt"/><path d="M237.69552,110.05898c0,-2.66149 2.15756,-4.81905 4.81905,-4.81905c2.66149,0 4.81905,2.15756 4.81905,4.81905c0,2.66149 -2.15756,-1.34762 -4.81905,-1.34762c-2.66149,0 -4.81905,4.00911 -4.81905,1.34762z" data-paper-data="{&quot;origPos&quot;:null}" fill="#000000" stroke="none" stroke-width="0" stroke-linecap="butt"/><path d="M251.34953,107.55898c0,-2.66148 2.15757,-4.81905 4.81905,-4.81905c2.66148,0 4.81905,2.15757 4.81905,4.81905c0,2.66148 -2.15757,4.81905 -4.81905,4.81905c-2.66148,0 -4.81905,-2.15757 -4.81905,-4.81905z" data-paper-data="{&quot;origPos&quot;:null}" fill="#000000" stroke="none" stroke-width="0" stroke-linecap="butt"/><path d="M259.08919,100.58755l-6.93651,3.28571" data-paper-data="{&quot;origPos&quot;:null}" fill="none" stroke="#000000" stroke-width="2.5" stroke-linecap="round"/><path d="M241.79552,144.79706l42.36508,4.73811" data-paper-data="{&quot;origPos&quot;:null,&quot;index&quot;:null}" fill="none" stroke="#000000" stroke-width="3.5" stroke-linecap="round"/><g data-paper-data="{&quot;origPos&quot;:null,&quot;origRot&quot;:0}"><g fill="none" stroke-linecap="round"><path d="M271.96553,180.83823l-28.14138,-28.2597l28.55382,-28.02477" data-paper-data="{&quot;origPos&quot;:null}" stroke="#dcdcdc" stroke-width="2"/><path d="M272.1896,124.54463c0,0 10.22202,9.59185 11.4803,14.54251c1.26948,4.99478 -3.98352,7.91423 -4.0944,13.06662c-0.11025,5.12303 5.03451,7.95951 3.84692,12.94422c-1.79284,7.52514 -11.6141,16.06301 -11.6141,16.06301" data-paper-data="{&quot;origPos&quot;:null}" stroke="#b35f00" stroke-width="3"/></g><g data-paper-data="{&quot;origPos&quot;:null}"><path d="M279.94327,152.60357l-34.49989,0.08434" data-paper-data="{&quot;origPos&quot;:null}" fill="none" stroke="#7d4200" stroke-width="2.5" stroke-linecap="round"/><path d="M277.39817,156.66506l2.15763,-3.94695l-2.1767,-3.85303l11.92571,3.68752z" data-paper-data="{&quot;origPos&quot;:null}" fill="#b2b2b2" stroke="none" stroke-width="0" stroke-linecap="butt"/></g></g><path d="M244.07334,153.86849c0,0 -21.34314,2.54172 -18.46918,-2.87201c3.25255,-6.1269 14.00092,-6.19942 14.00092,-6.19942" data-paper-data="{&quot;origPos&quot;:null}" fill="none" stroke="#000000" stroke-width="3.5" stroke-linecap="round"/></g></g></g></svg>