<svg version="1.1" xmlns="http://www.w3.org/2000/svg" xmlns:xlink="http://www.w3.org/1999/xlink" width="58.21859" height="157.40634"><g transform="translate(-215.56298,-87.03278)"><g data-paper-data="{&quot;isPaintingLayer&quot;:true}" fill="none" fill-rule="nonzero" stroke="none" stroke-width="none" stroke-linecap="none" stroke-linejoin="miter" stroke-miterlimit="10" stroke-dasharray="" stroke-dashoffset="0" font-family="none" font-weight="none" font-size="none" text-anchor="none" style="mix-blend-mode: normal"><g><path d="M240.90825,136.47325v67.29708l-12.04762,38.91879" data-paper-data="{&quot;origPos&quot;:null}" fill="none" stroke="#000000" stroke-width="3.5" stroke-linecap="round"/><path d="M253.75905,242.4923l-12.04762,-40.15873" data-paper-data="{&quot;origPos&quot;:null}" fill="none" stroke="#000000" stroke-width="3.5" stroke-linecap="round"/><path d="M216.81298,113.58278c0,-13.9728 11.3272,-25.3 25.3,-25.3c13.9728,0 25.3,11.3272 25.3,25.3c0,13.9728 -11.3272,25.3 -25.3,25.3c-13.9728,0 -25.3,-11.3272 -25.3,-25.3z" data-paper-data="{&quot;origPos&quot;:null}" fill="#d4d4d4" stroke="#000000" stroke-width="2.5" stroke-linecap="butt"/><path d="M237.69552,107.55898c0,-2.66149 2.15756,-4.81905 4.81905,-4.81905c2.66149,0 4.81905,2.15756 4.81905,4.81905c0,2.66149 -2.15756,4.81905 -4.81905,4.81905c-2.66149,0 -4.81905,-2.15756 -4.81905,-4.81905z" data-paper-data="{&quot;origPos&quot;:null}" fill="#000000" stroke="none" stroke-width="0" stroke-linecap="butt"/><path d="M251.34951,107.55898c0,-2.66148 2.15757,-4.81905 4.81905,-4.81905c2.66148,0 4.81905,2.15757 4.81905,4.81905c0,2.66148 -2.15757,4.81905 -4.81905,4.81905c-2.66148,0 -4.81905,-2.15757 -4.81905,-4.81905z" data-paper-data="{&quot;origPos&quot;:null}" fill="#000000" stroke="none" stroke-width="0" stroke-linecap="butt"/><path d="M237.9146,100.55263l9.12698,3.65079" data-paper-data="{&quot;origPos&quot;:null}" fill="none" stroke="#000000" stroke-width="2.5" stroke-linecap="round"/><path d="M259.08919,100.58755l-6.93651,3.28571" data-paper-data="{&quot;origPos&quot;:null}" fill="none" stroke="#000000" stroke-width="2.5" stroke-linecap="round"/><path d="M233.73999,169.86849c0,0 -9.67647,-4.45828 -6.80251,-9.87201c3.25255,-6.1269 12.66759,-15.19942 12.66759,-15.19942" data-paper-data="{&quot;origPos&quot;:null}" fill="none" stroke="#000000" stroke-width="3.5" stroke-linecap="round"/><path d="M260.49393,177.53517l-18.69841,-32.73811" data-paper-data="{&quot;origPos&quot;:null,&quot;index&quot;:null}" fill="none" stroke="#000000" stroke-width="3.5" stroke-linecap="round"/><g data-paper-data="{&quot;origPos&quot;:null}"><g fill="none" stroke-linecap="round"><path d="M234.01839,201.30454l0.85517,-32.20291l27.02298,-16.69413" data-paper-data="{&quot;origPos&quot;:null}" stroke="#dcdcdc" stroke-width="2"/><path d="M261.7367,152.30745c0,0 4.22738,13.36497 2.90456,18.29878c-1.33462,4.97777 -7.34434,4.95623 -9.96015,9.3966c-2.60091,4.41508 0.50022,9.40478 -2.97285,13.17246c-5.24311,5.68786 -17.9848,8.33394 -17.9848,8.33394" data-paper-data="{&quot;origPos&quot;:null}" stroke="#b35f00" stroke-width="3"/></g><g data-paper-data="{&quot;origPos&quot;:null}"><path d="M236.42191,170.38142l30.13656,16.79397" data-paper-data="{&quot;origPos&quot;:null}" fill="none" stroke="#7d4200" stroke-width="2.5" stroke-linecap="round"/><path d="M261.38439,188.64478l3.68967,-2.17006l0.10723,-4.64342l8.60028,9.04741z" data-paper-data="{&quot;origPos&quot;:null}" fill="#b2b2b2" stroke="none" stroke-width="0" stroke-linecap="butt"/></g></g></g></g></g></svg>