<svg version="1.1" xmlns="http://www.w3.org/2000/svg" xmlns:xlink="http://www.w3.org/1999/xlink" width="60.09516" height="156.90634" viewBox="0,0,60.09516,156.90634"><g transform="translate(-212.88821,-88.96579)"><g data-paper-data="{&quot;isPaintingLayer&quot;:true}" fill="none" fill-rule="nonzero" stroke="none" stroke-width="none" stroke-linecap="none" stroke-linejoin="miter" stroke-miterlimit="10" stroke-dasharray="" stroke-dashoffset="0" font-family="none" font-weight="none" font-size="none" text-anchor="none" style="mix-blend-mode: normal"><g><path d="M219.67755,150.14252l6.93211,-13.17578c0,0 2.12184,7.98575 4.80644,10.552c3.03015,2.89656 11.6032,4.88245 11.6032,4.88245l-2.27416,7.72724c0,0 -2.49339,0.18973 -4.02448,1.55464c-2.30011,2.05045 -5.79251,7.19678 -5.79251,7.19678c0,0 2.92193,-7.91456 1.04925,-8.93197c-1.87268,-1.01741 -4.54194,1.12034 -4.54194,1.12034c0,0 1.92299,-3.138 0.47936,-5.3857c-1.44363,-2.24771 -5.63213,1.16641 -5.63213,1.16641c0,0 3.18809,-8.09281 2.55741,-8.40733c-0.93718,-0.46738 -5.16255,1.70092 -5.16255,1.70092z" data-paper-data="{&quot;origPos&quot;:null,&quot;origRot&quot;:0}" fill="#00ff1a" stroke="#00ba13" stroke-width="1" stroke-linecap="butt"/><path d="M213.38964,164.93127l0.07359,-18.49454c0,0 6.92161,7.57963 11.35225,8.86574c5.00092,1.45164 15.58552,-1.28174 15.58552,-1.28174l1.9303,9.81827c0,0 -2.63797,1.6403 -3.54123,4.02286c-1.35694,3.57925 -2.25024,11.25352 -2.25024,11.25352c0,0 -1.3242,-10.39647 -3.97128,-10.44234c-2.64709,-0.04587 -4.36059,3.84144 -4.36059,3.84144c0,0 0.31719,-4.56088 -2.56346,-6.20841c-2.88065,-1.64753 -5.53517,4.518 -5.53517,4.518c0,0 -1.1333,-10.74563 -2.00864,-10.7301c-1.30075,0.02308 -4.71102,4.83731 -4.71102,4.83731z" data-paper-data="{&quot;origPos&quot;:null,&quot;origRot&quot;:0}" fill="#00ff1a" stroke="#00ba13" stroke-width="1" stroke-linecap="butt"/><path d="M267.22275,127.73887l-3.7404,-6.21628l5.98011,-0.48817z" data-paper-data="{&quot;origRot&quot;:0,&quot;origPos&quot;:null}" fill="#cfcfcf" stroke="none" stroke-width="0" stroke-linecap="butt"/><path d="M256.95261,128.23253l-3.23194,-6.49517l6,-0.00897z" data-paper-data="{&quot;origRot&quot;:0,&quot;origPos&quot;:null}" fill="#cfcfcf" stroke="none" stroke-width="0" stroke-linecap="butt"/><path d="M247.73039,127.67698l-3.23194,-6.49517l5.99999,-0.00897z" data-paper-data="{&quot;origRot&quot;:0,&quot;origPos&quot;:null}" fill="#cfcfcf" stroke="none" stroke-width="0" stroke-linecap="butt"/><path d="M254.94289,129.78809l-5.99999,-0.00897l3.23194,-6.49517z" data-paper-data="{&quot;origRot&quot;:0,&quot;origPos&quot;:null,&quot;index&quot;:null}" fill="#cfcfcf" stroke="none" stroke-width="0" stroke-linecap="butt"/><path d="M264.60955,130.45475l-5.99999,-0.00897l3.23194,-6.49517z" data-paper-data="{&quot;origRot&quot;:0,&quot;origPos&quot;:null,&quot;index&quot;:null}" fill="#cfcfcf" stroke="none" stroke-width="0" stroke-linecap="butt"/><path d="M241.35738,137.90627v67.29708l-12.04762,38.91879" data-paper-data="{&quot;origPos&quot;:null}" fill="none" stroke="#00940e" stroke-width="3.5" stroke-linecap="round"/><path d="M254.20817,243.92533l-12.04762,-40.15873" fill="none" stroke="#00940e" stroke-width="3.5" stroke-linecap="round"/><path d="M217.26214,115.0158c0,-14.69524 4.35476,-24.8 19.05,-24.8c14.21616,0 25.28979,-0.09326 34.24695,10.94615c3.52319,4.34221 -2.2842,10.01464 0.58213,14.81587c4.41719,7.39902 -17.25198,3.87489 -25.84108,4.5709c-5.06016,0.41005 -3.80643,8.54091 1.20845,9.33102c7.12221,1.12212 27.38676,-0.67775 21.46392,3.43381c-2.54327,1.7655 -6.64252,6.27587 -9.73839,6.24695c-9.2876,-0.08677 -5.21226,0.7553 -15.67196,0.7553c-13.9728,0 -25.3,-11.3272 -25.3,-25.3z" data-paper-data="{&quot;origPos&quot;:null}" fill="#00ff1a" stroke="#00940e" stroke-width="2.5" stroke-linecap="butt"/><path d="M241.89468,106.242c0,-2.66149 2.15756,-4.81905 4.81905,-4.81905c2.66149,0 4.81905,2.15756 4.81905,4.81905c0,2.66149 -2.15756,4.81905 -4.81905,4.81905c-2.66149,0 -4.81905,-2.15756 -4.81905,-4.81905z" data-paper-data="{&quot;origPos&quot;:null}" fill="#ff0000" stroke="none" stroke-width="0" stroke-linecap="butt"/><path d="M257.29864,106.242c0,-2.66148 2.15757,-4.81905 4.81905,-4.81905c2.66148,0 4.81905,2.15757 4.81905,4.81905c0,2.66148 -2.15757,4.81905 -4.81905,4.81905c-2.66148,0 -4.81905,-2.15757 -4.81905,-4.81905z" data-paper-data="{&quot;origPos&quot;:null}" fill="#ff0000" stroke="none" stroke-width="0" stroke-linecap="butt"/><path d="M252.43066,104.91233l-8.00691,-5.70258" data-paper-data="{&quot;origPos&quot;:null,&quot;origRot&quot;:0}" fill="none" stroke="#000000" stroke-width="2.5" stroke-linecap="round"/><path d="M263.88626,98.35557l-6.1324,4.6157" data-paper-data="{&quot;origPos&quot;:null,&quot;origRot&quot;:0}" fill="none" stroke="#000000" stroke-width="2.5" stroke-linecap="round"/><path d="M240.0542,146.23008l-15.69841,29.57143" data-paper-data="{&quot;origPos&quot;:null}" fill="none" stroke="#00940e" stroke-width="3.5" stroke-linecap="round"/><path d="M242.24467,146.23009l15.69841,29.57144" data-paper-data="{&quot;origPos&quot;:null,&quot;index&quot;:null}" fill="none" stroke="#00940e" stroke-width="3.5" stroke-linecap="round"/></g></g></g></svg>