<svg version="1.1" xmlns="http://www.w3.org/2000/svg" xmlns:xlink="http://www.w3.org/1999/xlink" width="59.86804" height="159.90634" viewBox="0,0,59.86804,159.90634"><g transform="translate(-213.06598,-84.04683)"><g data-paper-data="{&quot;isPaintingLayer&quot;:true}" fill="none" fill-rule="nonzero" stroke="none" stroke-width="none" stroke-linecap="none" stroke-linejoin="miter" stroke-miterlimit="10" stroke-dasharray="" stroke-dashoffset="0" font-family="none" font-weight="none" font-size="none" text-anchor="none" style="mix-blend-mode: normal"><path d="M242.79721,133.4873v67.29708l-12.04762,38.91879" data-paper-data="{&quot;origPos&quot;:null}" fill="none" stroke="#1ac200" stroke-width="8.5" stroke-linecap="round"/><path d="M243.60038,199.34762l12.04762,40.15873" fill="none" stroke="#1ac200" stroke-width="8.5" stroke-linecap="round"/><path d="M218.70196,110.59683c0,-13.9728 11.3272,-25.3 25.3,-25.3c13.9728,0 25.3,11.3272 25.3,25.3c0,13.9728 -11.3272,25.3 -25.3,25.3c-13.9728,0 -25.3,-11.3272 -25.3,-25.3z" data-paper-data="{&quot;origPos&quot;:null}" fill="#21ff00" stroke="#000000" stroke-width="2.5" stroke-linecap="butt"/><path d="M239.5845,104.57303c0,-2.66149 2.15756,-4.81905 4.81905,-4.81905c2.66149,0 4.81905,2.15756 4.81905,4.81905c0,2.66149 -2.15756,4.81905 -4.81905,4.81905c-2.66149,0 -4.81905,-2.15756 -4.81905,-4.81905z" data-paper-data="{&quot;origPos&quot;:null}" fill="#000000" stroke="none" stroke-width="0" stroke-linecap="butt"/><path d="M253.23847,104.57303c0,-2.66148 2.15757,-4.81905 4.81905,-4.81905c2.66148,0 4.81905,2.15757 4.81905,4.81905c0,2.66148 -2.15757,4.81905 -4.81905,4.81905c-2.66148,0 -4.81905,-2.15757 -4.81905,-4.81905z" data-paper-data="{&quot;origPos&quot;:null}" fill="#000000" stroke="none" stroke-width="0" stroke-linecap="butt"/><path d="M239.80355,97.56668l9.12698,3.65079" data-paper-data="{&quot;origPos&quot;:null}" fill="none" stroke="#000000" stroke-width="2.5" stroke-linecap="round"/><path d="M260.97815,97.6016l-6.93651,3.28571" data-paper-data="{&quot;origPos&quot;:null}" fill="none" stroke="#000000" stroke-width="2.5" stroke-linecap="round"/><path d="M241.49403,141.81111l-15.69841,29.57143" data-paper-data="{&quot;origPos&quot;:null}" fill="none" stroke="#1ac200" stroke-width="8.5" stroke-linecap="round"/><path d="M243.6845,141.8111l15.69841,29.57144" data-paper-data="{&quot;origPos&quot;:null,&quot;index&quot;:null}" fill="none" stroke="#1ac200" stroke-width="8.5" stroke-linecap="round"/><g data-paper-data="{&quot;origPos&quot;:null}"><g data-paper-data="{&quot;origPos&quot;:null,&quot;index&quot;:null}"><path d="M217.403,172.08588c1.26187,0.65158 1.45754,4.96148 0.71547,6.39861c-0.74207,1.43712 -2.36659,2.07393 -3.62846,1.42235c-1.26186,-0.65158 -1.49573,-2.2198 -0.75366,-3.65693c0.74207,-1.43712 2.40478,-4.81561 3.66665,-4.16403z" data-paper-data="{&quot;origPos&quot;:null}" fill="#16a600" stroke="#000000" stroke-width="0.5" stroke-linecap="butt"/><path d="M232.58963,181.36066c-0.41348,2.25036 -1.84954,3.87238 -3.20752,3.62286c-1.35798,-0.24951 -1.30547,-2.36698 -0.89199,-4.61734c0.41348,-2.25037 0.79825,-5.50962 2.15623,-5.2601c1.35798,0.24952 2.35675,4.00422 1.94327,6.25458z" data-paper-data="{&quot;origRot&quot;:0,&quot;origPos&quot;:null}" fill="#16a600" stroke="#000000" stroke-width="0.5" stroke-linecap="butt"/><path d="M223.17089,183.02269c0.74208,-1.43713 3.27567,-3.61939 4.53754,-2.96781c1.26187,0.65158 0.77415,3.89025 0.03208,5.32738c-0.74207,1.43713 -2.36657,2.07394 -3.62844,1.42236c-1.26187,-0.65158 -1.68324,-2.3448 -0.94117,-3.78193z" data-paper-data="{&quot;origPos&quot;:null}" fill="#16a600" stroke="#000000" stroke-width="0.5" stroke-linecap="butt"/><path d="M222.98303,180.27284c1.26187,0.65158 1.68324,2.3448 0.94117,3.78193c-0.74207,1.43713 -2.36658,2.07394 -3.62845,1.42236c-1.26187,-0.65158 -1.68324,-2.3448 -0.94117,-3.78193c0.74208,-1.43713 2.36658,-2.07394 3.62845,-1.42236z" data-paper-data="{&quot;origPos&quot;:null}" fill="#16a600" stroke="#000000" stroke-width="0.5" stroke-linecap="butt"/><path d="M216.1854,179.7372c0.74207,-1.43713 2.36657,-2.07394 3.62844,-1.42236c1.26187,0.65158 1.68324,2.3448 0.94117,3.78193c-0.74208,1.43713 -2.36658,2.07394 -3.62845,1.42236c-1.26187,-0.65158 -1.68324,-2.3448 -0.94117,-3.78193z" data-paper-data="{&quot;origPos&quot;:null}" fill="#16a600" stroke="#000000" stroke-width="0.5" stroke-linecap="butt"/><path d="M226.58642,170.3364c4.12735,2.13121 5.77888,4.92406 3.97347,8.42048c-0.47165,0.91342 -0.39811,1.06933 -1.20488,1.70644c-2.42031,1.91133 -5.98103,4.25191 -9.30656,2.53474c-4.12736,-2.1312 -6.00966,-6.69328 -4.20425,-10.1897c1.80541,-3.49642 6.61487,-4.60316 10.74222,-2.47196z" data-paper-data="{&quot;origPos&quot;:null}" fill="#16a600" stroke="#000000" stroke-width="0.5" stroke-linecap="butt"/><path d="M216.43361,172.69493c0,0 12.01542,5.57347 12.0423,5.62919c0.08064,0.16717 -0.38232,5.67479 -0.38232,5.67479c-1.56267,0.54991 -1.41011,0.8808 -3.06609,0.92613c-3.20197,0.08766 -6.83021,-2.00241 -8.80349,-4.5256c-1.12862,-1.44314 -1.64546,-2.69657 -1.6958,-4.52145c-0.01678,-0.6083 0.5097,-1.49113 0.5097,-1.49113l1.3957,-1.69192z" data-paper-data="{&quot;origPos&quot;:null}" fill="#16a600" stroke="none" stroke-width="0" stroke-linecap="butt"/><path d="M228.19043,184.12575l0.51342,-3.20097" data-paper-data="{&quot;origPos&quot;:null}" fill="none" stroke="#000000" stroke-width="0.5" stroke-linecap="round"/><path d="M224.27232,182.56099c0,0 -0.07342,0.71762 -0.25376,1.15635c-0.19293,0.46934 -0.70271,1.17046 -0.70271,1.17046" data-paper-data="{&quot;origPos&quot;:null}" fill="none" stroke="#000000" stroke-width="0.5" stroke-linecap="round"/><path d="M220.57376,181.09412c0,0 -0.01342,0.94413 -0.26813,1.37389c-0.31939,0.53889 -1.20293,1.10814 -1.20293,1.10814" data-paper-data="{&quot;origPos&quot;:null}" fill="none" stroke="#000000" stroke-width="0.5" stroke-linecap="round"/><path d="M229.17231,179.31738l1.18182,-4.20303c0,0 0.61255,0.34017 1.00462,0.90701c0.29504,0.42656 0.75599,1.63845 0.75599,1.63845l0.04545,3.11212z" data-paper-data="{&quot;origPos&quot;:null}" fill="#16a600" stroke="none" stroke-width="0" stroke-linecap="butt"/></g><path d="M217.36026,177.99009c0,0 -0.23111,0.94708 -0.49904,1.39324c-0.24207,0.4031 -0.80778,0.7829 -0.80778,0.7829" data-paper-data="{&quot;origPos&quot;:null}" fill="none" stroke="#000000" stroke-width="0.5" stroke-linecap="round"/></g><g data-paper-data="{&quot;origPos&quot;:null,&quot;index&quot;:null}"><g data-paper-data="{&quot;origPos&quot;:null,&quot;index&quot;:null}"><path d="M272.26366,176.74991c0.74207,1.43713 0.5082,3.00535 -0.75366,3.65693c-1.26187,0.65158 -2.88639,0.01477 -3.62846,-1.42235c-0.74207,-1.43713 -0.5464,-5.74703 0.71547,-6.39861c1.26187,-0.65158 2.92458,2.72691 3.66665,4.16403z" data-paper-data="{&quot;origPos&quot;:null}" fill="#16a600" stroke="#000000" stroke-width="0.5" stroke-linecap="butt"/><path d="M253.41039,181.86066c-0.41348,-2.25036 0.58529,-6.00506 1.94327,-6.25458c1.35798,-0.24952 1.74275,3.00973 2.15623,5.2601c0.41348,2.25036 0.46599,4.36783 -0.89199,4.61734c-1.35798,0.24952 -2.79404,-1.3725 -3.20752,-3.62286z" data-paper-data="{&quot;origRot&quot;:0,&quot;origPos&quot;:null}" fill="#16a600" stroke="#000000" stroke-width="0.5" stroke-linecap="butt"/><path d="M262.82911,183.52269c0.74207,1.43713 0.3207,3.13035 -0.94117,3.78193c-1.26187,0.65158 -2.88637,0.01477 -3.62844,-1.42236c-0.74207,-1.43713 -1.22979,-4.6758 0.03208,-5.32738c1.26187,-0.65158 3.79546,1.53069 4.53754,2.96782z" data-paper-data="{&quot;origPos&quot;:null}" fill="#16a600" stroke="#000000" stroke-width="0.5" stroke-linecap="butt"/><path d="M266.64543,182.1952c0.74207,1.43713 0.3207,3.13035 -0.94117,3.78193c-1.26187,0.65158 -2.88638,0.01477 -3.62845,-1.42236c-0.74207,-1.43713 -0.3207,-3.13035 0.94117,-3.78193c1.26187,-0.65158 2.88637,-0.01477 3.62845,1.42236z" data-paper-data="{&quot;origPos&quot;:null}" fill="#16a600" stroke="#000000" stroke-width="0.5" stroke-linecap="butt"/><path d="M269.81462,180.2372c0.74207,1.43713 0.3207,3.13035 -0.94117,3.78193c-1.26187,0.65158 -2.88637,0.01477 -3.62845,-1.42236c-0.74207,-1.43713 -0.3207,-3.13035 0.94117,-3.78193c1.26187,-0.65158 2.88637,-0.01477 3.62844,1.42236z" data-paper-data="{&quot;origPos&quot;:null}" fill="#16a600" stroke="#000000" stroke-width="0.5" stroke-linecap="butt"/><path d="M270.15581,173.30836c1.80541,3.49642 -0.07689,8.0585 -4.20425,10.1897c-3.32553,1.71717 -6.88626,-0.6234 -9.30657,-2.53474c-0.80677,-0.63711 -0.73322,-0.79302 -1.20488,-1.70644c-1.80541,-3.49642 -0.15388,-6.28927 3.97347,-8.42048c4.12735,-2.1312 8.93681,-1.02446 10.74222,2.47196z" data-paper-data="{&quot;origPos&quot;:null}" fill="#16a600" stroke="#000000" stroke-width="0.5" stroke-linecap="butt"/><path d="M269.5664,173.19494l1.3957,1.69192c0,0 0.52648,0.88283 0.5097,1.49113c-0.05034,1.82488 -0.56718,3.07831 -1.6958,4.52145c-1.97328,2.52319 -5.60152,4.61326 -8.80349,4.5256c-1.65598,-0.04533 -1.50342,-0.37622 -3.06609,-0.92613c0,0 -0.46295,-5.50762 -0.38232,-5.67479c0.02688,-0.05572 12.0423,-5.62919 12.0423,-5.62919z" data-paper-data="{&quot;origPos&quot;:null}" fill="#16a600" stroke="none" stroke-width="0" stroke-linecap="butt"/><path d="M257.80959,184.62576l-0.51342,-3.20097" data-paper-data="{&quot;origPos&quot;:null}" fill="none" stroke="#000000" stroke-width="0.5" stroke-linecap="round"/><path d="M262.68416,185.38781c0,0 -0.50978,-0.70112 -0.70271,-1.17046c-0.18034,-0.43873 -0.25376,-1.15635 -0.25376,-1.15635" data-paper-data="{&quot;origPos&quot;:null}" fill="none" stroke="#000000" stroke-width="0.5" stroke-linecap="round"/><path d="M266.89731,184.07615c0,0 -0.88354,-0.56925 -1.20293,-1.10814c-0.25471,-0.42976 -0.26813,-1.37389 -0.26813,-1.37389" data-paper-data="{&quot;origPos&quot;:null}" fill="none" stroke="#000000" stroke-width="0.5" stroke-linecap="round"/><path d="M253.83983,181.27193l0.04545,-3.11212c0,0 0.46095,-1.21189 0.75599,-1.63845c0.39207,-0.56684 1.00462,-0.90701 1.00462,-0.90701l1.18182,4.20304z" data-paper-data="{&quot;origPos&quot;:null}" fill="#16a600" stroke="none" stroke-width="0" stroke-linecap="butt"/></g><path d="M269.94658,180.66623c0,0 -0.56571,-0.3798 -0.80778,-0.78289c-0.26793,-0.44617 -0.49904,-1.39324 -0.49904,-1.39324" data-paper-data="{&quot;origPos&quot;:null}" fill="none" stroke="#000000" stroke-width="0.5" stroke-linecap="round"/></g></g></g></svg>