<svg version="1.1" xmlns="http://www.w3.org/2000/svg" xmlns:xlink="http://www.w3.org/1999/xlink" width="57.07116" height="158.90634"><defs><radialGradient cx="245.34344" cy="144.67169" r="7" gradientUnits="userSpaceOnUse" id="color-1"><stop offset="0" stop-color="#ff2e2e"/><stop offset="1" stop-color="#e80000"/></radialGradient></defs><g transform="translate(-215.14728,-86.26252)"><g data-paper-data="{&quot;isPaintingLayer&quot;:true}" fill="none" fill-rule="nonzero" stroke="none" stroke-width="none" stroke-linecap="none" stroke-linejoin="miter" stroke-miterlimit="10" stroke-dasharray="" stroke-dashoffset="0" font-family="none" font-weight="none" font-size="none" text-anchor="none" style="mix-blend-mode: normal"><path d="M241.24253,136.45299v67.29708l-12.04762,38.91879" data-paper-data="{&quot;origPos&quot;:null}" fill="none" stroke="#ff0000" stroke-width="5" stroke-linecap="round"/><path d="M242.0457,202.31332l12.04762,40.15873" data-paper-data="{&quot;origPos&quot;:null}" fill="none" stroke="#ff0000" stroke-width="5" stroke-linecap="round"/><path d="M217.14728,113.56252c0,-13.9728 11.3272,-25.3 25.3,-25.3c13.9728,0 25.3,11.3272 25.3,25.3c0,13.9728 -11.3272,25.3 -25.3,25.3c-13.9728,0 -25.3,-11.3272 -25.3,-25.3z" data-paper-data="{&quot;origPos&quot;:null}" fill="#c3b200" stroke="#ff0000" stroke-width="4" stroke-linecap="butt"/><path d="M267.07822,167.34825c0,0 -13.41596,2.68156 -16.2424,-2.64267c-3.30006,-6.21641 -8.706,-19.92876 -8.706,-19.92876" data-paper-data="{&quot;origPos&quot;:null,&quot;index&quot;:null}" fill="none" stroke="#ff0000" stroke-width="4.5" stroke-linecap="round"/><path d="M244.103,107.53905l-9.93573,-3.98468" data-paper-data="{&quot;origPos&quot;:null,&quot;origRot&quot;:0}" fill="none" stroke="#00ffe4" stroke-width="4.5" stroke-linecap="round"/><path d="M250.16727,107.28905l9.18573,-3.98468" data-paper-data="{&quot;origPos&quot;:null,&quot;origRot&quot;:0,&quot;index&quot;:null}" fill="none" stroke="#00ffe4" stroke-width="4.5" stroke-linecap="round"/><path d="M239.26013,127.89393l2.76785,-2.59722h11.45154l2.90561,2.5" data-paper-data="{&quot;origPos&quot;:null}" fill="none" stroke="#000000" stroke-width="2" stroke-linecap="round"/><g data-paper-data="{&quot;origPos&quot;:null,&quot;index&quot;:null}"><path d="M267.80178,170.29669c-2.14011,0 -3.875,-1.73489 -3.875,-3.875c0,-2.14011 1.73489,-3.875 3.875,-3.875c2.14011,0 3.875,1.73489 3.875,3.875c0,2.14011 -1.73489,3.875 -3.875,3.875z" fill="#ff0000" stroke="none" stroke-width="0" stroke-linecap="butt"/><path d="M270.71844,166.50503l0.5,-8.33334" data-paper-data="{&quot;origPos&quot;:null}" fill="none" stroke="#ff0000" stroke-width="2" stroke-linecap="round"/><path d="M268.90089,165.84468l-0.19821,-8.34597" data-paper-data="{&quot;origPos&quot;:null,&quot;origRot&quot;:0}" fill="none" stroke="#ff0000" stroke-width="2" stroke-linecap="round"/><path d="M265.99619,157.35767l0.94451,8.29472" data-paper-data="{&quot;origPos&quot;:null,&quot;origRot&quot;:0}" fill="none" stroke="#ff0000" stroke-width="2" stroke-linecap="round"/><path d="M265.05909,166.77658l-1.51462,-8.20978" data-paper-data="{&quot;origPos&quot;:null,&quot;origRot&quot;:0}" fill="none" stroke="#ff0000" stroke-width="2" stroke-linecap="round"/><path d="M261.55178,164.33835l3.83333,3.83334" data-paper-data="{&quot;origPos&quot;:null}" fill="none" stroke="#ff0000" stroke-width="2" stroke-linecap="round"/><path d="M267.39343,168.74671c-1.37151,0 -2.48334,-1.11182 -2.48334,-2.48333c0,-1.37151 1.11183,-2.48334 2.48334,-2.48334c1.37151,0 2.48333,1.11183 2.48333,2.48334c0,1.37151 -1.11182,2.48333 -2.48333,2.48333z" data-paper-data="{&quot;origPos&quot;:null}" fill="#00ffe4" stroke="none" stroke-width="0" stroke-linecap="butt"/></g><path d="M234.28513,148.41336c0,-3.86599 3.13401,-7 7,-7c3.86599,0 7,3.13401 7,7c0,3.86599 -3.13401,7 -7,7c-3.86599,0 -7,-3.13401 -7,-7z" data-paper-data="{&quot;origPos&quot;:null}" fill="url(#color-1)" stroke="none" stroke-width="0" stroke-linecap="butt"/><path d="M246.99094,169.34824c0,0 -19.18977,-1.14835 -16.59101,-6.04368c3.52775,-6.6453 6.20609,-13.02775 6.20609,-13.02775" data-paper-data="{&quot;origPos&quot;:null}" fill="none" stroke="#e80000" stroke-width="4.5" stroke-linecap="round"/><path d="M238.01846,148.01338c0,-1.87777 1.52223,-3.4 3.4,-3.4c1.87777,0 3.4,1.52223 3.4,3.4c0,1.87777 -1.52223,3.4 -3.4,3.4c-1.87777,0 -3.4,-1.52223 -3.4,-3.4z" data-paper-data="{&quot;origPos&quot;:null}" fill="#00ffe4" stroke="none" stroke-width="0" stroke-linecap="butt"/><g data-paper-data="{&quot;origPos&quot;:null}"><path d="M243.67678,168.83836l-0.5,-8.33334" data-paper-data="{&quot;origPos&quot;:null}" fill="none" stroke="#e80000" stroke-width="2" stroke-linecap="round"/><g><path d="M242.71845,168.75503c0,-2.14011 1.73489,-3.875 3.875,-3.875c2.14011,0 3.875,1.73489 3.875,3.875c0,2.14011 -1.73489,3.875 -3.875,3.875c-2.14011,0 -3.875,-1.73489 -3.875,-3.875z" data-paper-data="{&quot;origPos&quot;:null}" fill="#e80000" stroke="none" stroke-width="0" stroke-linecap="butt"/><path d="M245.69255,159.83204l-0.19821,8.34597" data-paper-data="{&quot;origPos&quot;:null,&quot;origRot&quot;:0}" fill="none" stroke="#e80000" stroke-width="2" stroke-linecap="round"/><path d="M247.45452,167.98572l0.94451,-8.29472" data-paper-data="{&quot;origPos&quot;:null,&quot;origRot&quot;:0}" fill="none" stroke="#e80000" stroke-width="2" stroke-linecap="round"/><path d="M249.33614,169.10991l1.51462,-8.20977" data-paper-data="{&quot;origPos&quot;:null,&quot;origRot&quot;:0}" fill="none" stroke="#e80000" stroke-width="2" stroke-linecap="round"/><path d="M249.01011,170.50503l3.83334,-3.83334" data-paper-data="{&quot;origPos&quot;:null}" fill="none" stroke="#e80000" stroke-width="2" stroke-linecap="round"/><path d="M244.51846,168.59671c0,-1.37151 1.11182,-2.48333 2.48333,-2.48333c1.37151,0 2.48334,1.11182 2.48334,2.48333c0,1.37151 -1.11183,2.48334 -2.48334,2.48334c-1.37151,0 -2.48333,-1.11183 -2.48333,-2.48334z" data-paper-data="{&quot;origPos&quot;:null}" fill="#00ffe4" stroke="none" stroke-width="0" stroke-linecap="butt"/></g></g></g></g></svg>