<svg version="1.1" xmlns="http://www.w3.org/2000/svg" xmlns:xlink="http://www.w3.org/1999/xlink" width="55.99885" height="161.17312" viewBox="0,0,55.99885,161.17312"><defs><radialGradient cx="264.29149" cy="157.43807" r="1.84732" gradientUnits="userSpaceOnUse" id="color-1"><stop offset="0" stop-color="#ff0000"/><stop offset="1" stop-color="#ff0000" stop-opacity="0"/></radialGradient></defs><g transform="translate(-213.1133,-84.69902)"><g data-paper-data="{&quot;isPaintingLayer&quot;:true}" fill="none" fill-rule="nonzero" stroke="none" stroke-width="none" stroke-linecap="none" stroke-linejoin="miter" stroke-miterlimit="10" stroke-dasharray="" stroke-dashoffset="0" font-family="none" font-weight="none" font-size="none" text-anchor="none" style="mix-blend-mode: normal"><g><path d="M241.35741,137.90628v67.29708l-12.04762,38.91879" data-paper-data="{&quot;origPos&quot;:null}" fill="none" stroke="#000000" stroke-width="3.5" stroke-linecap="round"/><path d="M254.2082,243.92534l-12.04762,-40.15873" fill="none" stroke="#000000" stroke-width="3.5" stroke-linecap="round"/><path d="M217.26215,115.01581c0,-13.9728 11.3272,-25.3 25.3,-25.3c13.9728,0 25.3,11.3272 25.3,25.3c0,13.9728 -11.3272,25.3 -25.3,25.3c-13.9728,0 -25.3,-11.3272 -25.3,-25.3z" data-paper-data="{&quot;origPos&quot;:null}" fill="#d4d4d4" stroke="#000000" stroke-width="2.5" stroke-linecap="butt"/><path d="M238.14469,108.99201c0,-2.66149 2.15756,-4.81905 4.81905,-4.81905c2.66149,0 4.81905,2.15756 4.81905,4.81905c0,2.66149 -2.15756,4.81905 -4.81905,4.81905c-2.66149,0 -4.81905,-2.15756 -4.81905,-4.81905z" data-paper-data="{&quot;origPos&quot;:null}" fill="#000000" stroke="none" stroke-width="0" stroke-linecap="butt"/><path d="M251.79867,108.99201c0,-2.66148 2.15757,-4.81905 4.81905,-4.81905c2.66148,0 4.81905,2.15757 4.81905,4.81905c0,2.66148 -2.15757,4.81905 -4.81905,4.81905c-2.66148,0 -4.81905,-2.15757 -4.81905,-4.81905z" data-paper-data="{&quot;origPos&quot;:null}" fill="#000000" stroke="none" stroke-width="0" stroke-linecap="butt"/><path d="M247.49073,105.63645l-9.12698,-3.65079" data-paper-data="{&quot;origPos&quot;:null}" fill="none" stroke="#000000" stroke-width="2.5" stroke-linecap="round"/><path d="M252.60184,105.30629l6.93651,-3.28571" data-paper-data="{&quot;origPos&quot;:null}" fill="none" stroke="#000000" stroke-width="2.5" stroke-linecap="round"/><path d="M260.27644,167.30154c0,0 -6.07275,-3.98407 -9.53291,-8.02754c-3.57695,-4.17994 -8.49883,-13.0439 -8.49883,-13.0439" data-paper-data="{&quot;origPos&quot;:null,&quot;index&quot;:null}" fill="none" stroke="#000000" stroke-width="3.5" stroke-linecap="round"/><path d="M246.49798,84.69912c9.71015,-0.03583 24.57208,10.11897 18.14593,17.3986c0,0 -14.66243,-3.92727 -23.18593,-2.82558c0,0 -15.26004,27.2895 -12.27611,23.42317c0,0 -5.54589,5.77652 -9.61081,6.32826c-2.45763,0.33358 -6.77927,-18.8332 -6.43878,-21.28988c1.10466,-7.9702 3.15506,-10.56888 8.40172,-16.66945c4.0737,-4.7367 24.96396,-6.36512 24.96396,-6.36512z" data-paper-data="{&quot;origPos&quot;:null}" fill="#000000" stroke="none" stroke-width="0" stroke-linecap="butt"/><path d="M227.39241,128.01005v6.43668" fill="none" stroke="#000000" stroke-width="1.5" stroke-linecap="round"/><path d="M230.72173,137.998v-6.88059" fill="none" stroke="#000000" stroke-width="1.5" stroke-linecap="round"/><path d="M234.71691,133.115v5.99277" data-paper-data="{&quot;origPos&quot;:null}" fill="none" stroke="#000000" stroke-width="1.5" stroke-linecap="round"/><path d="M239.37796,134.22478v5.54886" data-paper-data="{&quot;origPos&quot;:null}" fill="none" stroke="#000000" stroke-width="1.5" stroke-linecap="round"/><path d="M243.59509,138.88582v-4.66104" data-paper-data="{&quot;origPos&quot;:null}" fill="none" stroke="#000000" stroke-width="1.5" stroke-linecap="round"/><path d="M247.59027,133.78087v5.54886" data-paper-data="{&quot;origPos&quot;:null}" fill="none" stroke="#000000" stroke-width="1.5" stroke-linecap="round"/><path d="M251.3635,132.00523v6.21473" data-paper-data="{&quot;origPos&quot;:null}" fill="none" stroke="#000000" stroke-width="1.5" stroke-linecap="round"/><path d="M254.69282,136.44432v-5.99277" data-paper-data="{&quot;origPos&quot;:null}" fill="none" stroke="#000000" stroke-width="1.5" stroke-linecap="round"/><path d="M258.688,128.01005v5.54886" data-paper-data="{&quot;origPos&quot;:null}" fill="none" stroke="#000000" stroke-width="1.5" stroke-linecap="round"/><path d="M251.20888,126.28049l-0.4098,-4.64454l1.79912,1.92502l4.7336,0.17474l0.1755,1.98906z" data-paper-data="{&quot;origPos&quot;:null,&quot;index&quot;:null,&quot;origRot&quot;:0}" fill="#000000" stroke="none" stroke-width="0" stroke-linecap="butt"/><path d="M243.39526,127.13754l-0.19051,-1.98768l4.62219,-1.03581l1.41753,-2.22107l0.44484,4.64132z" data-paper-data="{&quot;origPos&quot;:null,&quot;index&quot;:null,&quot;origRot&quot;:0}" fill="#000000" stroke="none" stroke-width="0" stroke-linecap="butt"/><path d="M262.188,125.84338v5.54886" data-paper-data="{&quot;origPos&quot;:null}" fill="none" stroke="#000000" stroke-width="1.5" stroke-linecap="round"/><g data-paper-data="{&quot;origPos&quot;:null}" stroke="none" stroke-width="0" stroke-linecap="butt"><path d="M261.91401,164.36093v-3.03025h6.33599v3.03025z" data-paper-data="{&quot;origPos&quot;:null}" fill="#333333"/><path d="M262.48522,157.39702c0,-1.02025 0.82706,-1.84731 1.84731,-1.84731c1.02025,0 1.84733,0.82706 1.84733,1.84731c0,1.02025 -0.82708,1.84733 -1.84733,1.84733c-1.02025,0 -1.84731,-0.82708 -1.84731,-1.84733z" data-paper-data="{&quot;origPos&quot;:null}" fill="url(#color-1)"/><path d="M263.06859,157.36461c0,-0.42958 0.34824,-0.77782 0.77782,-0.77782c0.42958,0 0.77782,0.34824 0.77782,0.77782c0,0.42958 -0.34824,0.77782 -0.77782,0.77782c-0.42958,0 -0.77782,-0.34824 -0.77782,-0.77782z" data-paper-data="{&quot;origPos&quot;:null}" fill="#ff0000"/><path d="M236.01911,166.28928v-7.16242h29.88933v7.16242z" data-paper-data="{&quot;origPos&quot;:null}" fill="#333333"/><path d="M225,170.42144v-10.19268h11.84554l-0.13774,3.58121z" fill="#333333"/><path d="M248.14291,178.47917l-0.82643,-13.22293h4.13217l0.82643,13.22293z" data-paper-data="{&quot;origPos&quot;:null}" fill="#333333"/><path d="M236.36346,178.06595l3.44347,-13.22293h4.82086l-3.44347,13.22293z" data-paper-data="{&quot;origPos&quot;:null}" fill="#333333"/><path d="M259.50358,159.8115v-1.45841c0,0 1.41826,0.14166 2.36751,-0.51444c0.59438,-0.41082 1.13396,-2.50272 1.13396,-2.50272l0.90617,0.03552v4.44005z" data-paper-data="{&quot;origPos&quot;:null}" fill="#333333"/></g><path d="M242.35581,173.9682c0,0 -12.78599,-6.80592 -13.28907,-12.86885c-0.39515,-4.76221 10.98748,-14.86924 10.98748,-14.86924" data-paper-data="{&quot;origPos&quot;:null}" fill="none" stroke="#000000" stroke-width="3.5" stroke-linecap="round"/></g></g></g></svg>