<svg version="1.1" xmlns="http://www.w3.org/2000/svg" xmlns:xlink="http://www.w3.org/1999/xlink" width="54.59963" height="157.40634"><defs><linearGradient x1="258.28868" y1="171.05156" x2="257.20491" y2="175.9942" gradientUnits="userSpaceOnUse" id="color-1"><stop offset="0" stop-color="#7c7c7c"/><stop offset="1" stop-color="#7c7c7c"/></linearGradient><linearGradient x1="224.25486" y1="172.39839" x2="225.46717" y2="177.1355" gradientUnits="userSpaceOnUse" id="color-2"><stop offset="0" stop-color="#7c7c7c"/><stop offset="1" stop-color="#7c7c7c"/></linearGradient></defs><g transform="translate(-214.51251,-86.53575)"><g data-paper-data="{&quot;isPaintingLayer&quot;:true}" fill="none" fill-rule="nonzero" stroke="none" stroke-width="none" stroke-linecap="none" stroke-linejoin="miter" stroke-miterlimit="10" stroke-dasharray="" stroke-dashoffset="0" font-family="none" font-weight="none" font-size="none" text-anchor="none" style="mix-blend-mode: normal"><path d="M241.35741,135.97622v67.29708l-12.04762,38.91879" data-paper-data="{&quot;origPos&quot;:null}" fill="none" stroke="#000000" stroke-width="3.5" stroke-linecap="round"/><path d="M254.2082,241.99528l-12.04762,-40.15873" fill="none" stroke="#000000" stroke-width="3.5" stroke-linecap="round"/><path d="M217.26214,113.08575c0,-13.9728 11.3272,-25.3 25.3,-25.3c13.9728,0 25.3,11.3272 25.3,25.3c0,13.9728 -11.3272,25.3 -25.3,25.3c-13.9728,0 -25.3,-11.3272 -25.3,-25.3z" data-paper-data="{&quot;origPos&quot;:null}" fill="#d4d4d4" stroke="#000000" stroke-width="2.5" stroke-linecap="butt"/><path d="M240.74468,112.86195c0,-2.66149 2.15756,-4.81905 4.81905,-4.81905c2.66149,0 4.81905,2.15756 4.81905,4.81905c0,2.66149 -2.15756,4.81905 -4.81905,4.81905c-2.66149,0 -4.81905,-2.15756 -4.81905,-4.81905z" data-paper-data="{&quot;origPos&quot;:null}" fill="#000000" stroke="none" stroke-width="0" stroke-linecap="butt"/><path d="M252.39866,112.66195c0,-2.66148 2.15757,-4.81905 4.81905,-4.81905c2.66148,0 4.81905,2.15757 4.81905,4.81905c0,2.66148 -2.15757,4.81905 -4.81905,4.81905c-2.66148,0 -4.81905,-2.15757 -4.81905,-4.81905z" data-paper-data="{&quot;origPos&quot;:null}" fill="#000000" stroke="none" stroke-width="0" stroke-linecap="butt"/><path d="M239.96374,105.6556l9.12698,3.65079" data-paper-data="{&quot;origPos&quot;:null}" fill="none" stroke="#000000" stroke-width="2.5" stroke-linecap="round"/><path d="M259.73832,105.69052l-6.93651,3.28571" data-paper-data="{&quot;origPos&quot;:null}" fill="none" stroke="#000000" stroke-width="2.5" stroke-linecap="round"/><path d="M240.05422,144.30001l-15.69841,29.57143" data-paper-data="{&quot;origPos&quot;:null}" fill="none" stroke="#000000" stroke-width="3.5" stroke-linecap="round"/><path d="M257.94309,173.87147l-15.69841,-29.57144" data-paper-data="{&quot;origPos&quot;:null,&quot;index&quot;:null}" fill="none" stroke="#000000" stroke-width="3.5" stroke-linecap="round"/><path d="M223.00003,129.26993l-5.6,-10.8h51l-1.4,4c0,0 -4.46751,5.9342 -6.4253,8.7935c-2.88113,4.20782 -7.972,6.42 -7.972,6.42c0,0 -11.82062,1.43324 -18.08648,0.21872c-4.49435,-0.87115 -11.51622,-8.63222 -11.51622,-8.63222z" data-paper-data="{&quot;origPos&quot;:null}" fill="#000000" stroke="none" stroke-width="0" stroke-linecap="butt"/><path d="M233.71215,88.2946c6.04471,-1.05601 17.44813,0.19017 17.44813,0.19017c0,0 4.91119,1.92345 7.69064,5.58207c1.8887,2.48611 6.19852,7.64579 6.19852,7.64579l1.35059,3.47793h-49.2l5.40235,-9.3904c0,0 6.77403,-6.74811 11.10977,-7.50556z" data-paper-data="{&quot;origPos&quot;:null,&quot;index&quot;:null}" fill="#000000" stroke="none" stroke-width="0" stroke-linecap="butt"/><path d="M217.40003,119.06996l1.42424,-15.26364l17.37576,-3.13636v18.4z" data-paper-data="{&quot;origPos&quot;:null}" fill="#000000" stroke="none" stroke-width="0" stroke-linecap="butt"/><g data-paper-data="{&quot;origPos&quot;:null,&quot;origRot&quot;:0}" stroke="none" stroke-width="0" stroke-linecap="butt"><path d="M257.25405,175.96729c0,0 -4.17874,-1.57299 -5.85545,-2.99062c-1.80732,-1.52806 -3.07193,-4.55736 -3.07193,-4.55736c0,0 1.93275,1.39134 4.07805,1.97889c1.77635,0.4865 5.97069,0.77325 5.97069,0.77325z" data-paper-data="{&quot;origPos&quot;:null,&quot;origRot&quot;:0,&quot;index&quot;:null}" fill="#ff0000"/><path d="M260.15475,174.32067c0,0 -1.51501,4.2001 -2.90932,5.89628c-1.50292,1.82828 -4.51443,3.1347 -4.51443,3.1347c0,0 1.36446,-1.9518 1.92228,-4.10503c0.46188,-1.78291 0.69057,-5.98082 0.69057,-5.98082z" data-paper-data="{&quot;origPos&quot;:null,&quot;index&quot;:null}" fill="#ff0000"/><path d="M255.34414,172.91137c0,0 1.51501,-4.2001 2.90932,-5.89626c1.50292,-1.82828 4.51443,-3.1347 4.51443,-3.1347c0,0 -1.36446,1.9518 -1.92228,4.10503c-0.46188,1.78291 -0.69057,5.98082 -0.69057,5.98082z" data-paper-data="{&quot;origPos&quot;:null}" fill="#ff0000"/><path d="M257.87795,171.03818c0,0 4.17874,1.57299 5.85545,2.99062c1.80732,1.52806 3.07193,4.55736 3.07193,4.55736c0,0 -1.93275,-1.39134 -4.07805,-1.97889c-1.77635,-0.4865 -5.97069,-0.77325 -5.97069,-0.77325z" data-paper-data="{&quot;origPos&quot;:null,&quot;origRot&quot;:0}" fill="#ff0000"/><path d="M255.27546,172.981c0.29928,-1.36488 1.64834,-2.22871 3.0132,-1.92943c1.36488,0.29928 2.22871,1.64834 1.92943,3.0132c-0.29928,1.36488 -1.64834,2.22871 -3.0132,1.92943c-1.36488,-0.29928 -2.22871,-1.64834 -1.92943,-3.0132z" data-paper-data="{&quot;origPos&quot;:null}" fill="url(#color-1)"/></g><g data-paper-data="{&quot;origPos&quot;:null,&quot;origRot&quot;:0}" stroke="none" stroke-width="0" stroke-linecap="butt"><path d="M225.49789,177.09091c0,0 -4.29033,0.4581 -6.35357,-0.03691c-2.22395,-0.53358 -4.63181,-2.59876 -4.63181,-2.59876c0,0 2.27279,0.36106 4.37979,-0.06401c1.74461,-0.35196 5.48951,-1.92706 5.48951,-1.92706z" data-paper-data="{&quot;origPos&quot;:null,&quot;origRot&quot;:0,&quot;index&quot;:null}" fill="#ff0000"/><path d="M227.28605,174.40919c0,0 0.51741,4.28359 0.05099,6.35347c-0.50276,2.23112 -2.53442,4.66733 -2.53442,4.66733c0,0 0.32957,-2.27757 -0.12459,-4.37849c-0.37607,-1.73958 -2.00282,-5.46231 -2.00282,-5.46231z" data-paper-data="{&quot;origPos&quot;:null,&quot;index&quot;:null}" fill="#ff0000"/><path d="M222.52147,175.28316c0,0 -0.51741,-4.28359 -0.05099,-6.35347c0.50276,-2.23112 2.53442,-4.66733 2.53442,-4.66733c0,0 -0.32959,2.27756 0.12459,4.37849c0.37607,1.73958 2.00282,5.46233 2.00282,5.46233z" data-paper-data="{&quot;origPos&quot;:null}" fill="#ff0000"/><path d="M223.89452,172.56531c0,0 4.29033,-0.4581 6.35357,0.03691c2.22395,0.53358 4.63181,2.59876 4.63181,2.59876c0,0 -2.27279,-0.36106 -4.37979,0.06401c-1.74461,0.35196 -5.48951,1.92706 -5.48951,1.92706z" data-paper-data="{&quot;origPos&quot;:null,&quot;origRot&quot;:0}" fill="#ff0000"/><path d="M222.49246,175.37309c-0.33477,-1.30811 0.45428,-2.63993 1.76239,-2.9747c1.30811,-0.33477 2.63993,0.45428 2.9747,1.76239c0.33477,1.30811 -0.45428,2.63993 -1.76239,2.9747c-1.30811,0.33477 -2.63993,-0.4543 -2.97468,-1.76241z" data-paper-data="{&quot;origPos&quot;:null}" fill="url(#color-2)"/></g></g></g></svg>