<svg version="1.1" xmlns="http://www.w3.org/2000/svg" xmlns:xlink="http://www.w3.org/1999/xlink" width="53.6" height="158.40634"><g transform="translate(-214.47548,-86.92911)"><g data-paper-data="{&quot;isPaintingLayer&quot;:true}" fill="none" fill-rule="nonzero" stroke="none" stroke-width="none" stroke-linecap="none" stroke-linejoin="miter" stroke-miterlimit="10" stroke-dasharray="" stroke-dashoffset="0" font-family="none" font-weight="none" font-size="none" text-anchor="none" style="mix-blend-mode: normal"><g data-paper-data="{&quot;origPos&quot;:null}"><path d="M240.07073,136.61958v67.29708l-12.04762,38.91879" data-paper-data="{&quot;origPos&quot;:null}" fill="none" stroke="#54b300" stroke-width="5" stroke-linecap="round"/><path d="M240.8739,202.47991l12.04762,40.15873" fill="none" stroke="#54b300" stroke-width="5" stroke-linecap="round"/><path d="M215.97548,113.72911c0,-13.9728 11.3272,-25.3 25.3,-25.3c13.9728,0 25.3,11.3272 25.3,25.3c0,14.59359 -10.70641,25.3 -25.3,25.3c-13.9728,0 -25.3,-11.3272 -25.3,-25.3z" data-paper-data="{&quot;origPos&quot;:null}" fill="#95d959" stroke="#54b300" stroke-width="3" stroke-linecap="butt"/><path d="M236.85802,107.70531c0,-2.66149 2.15756,-4.81905 4.81905,-4.81905c2.66149,0 4.81905,2.15756 4.81905,4.81905c0,2.66149 -2.15756,4.81905 -4.81905,4.81905c-2.66149,0 -4.81905,-2.15756 -4.81905,-4.81905z" data-paper-data="{&quot;origPos&quot;:null}" fill="#ff0000" stroke="none" stroke-width="0" stroke-linecap="butt"/><path d="M250.51199,107.70531c0,-2.66148 2.15757,-4.81905 4.81905,-4.81905c2.66148,0 4.81905,2.15757 4.81905,4.81905c0,2.66148 -2.15757,4.81905 -4.81905,4.81905c-2.66148,0 -4.81905,-2.15757 -4.81905,-4.81905z" data-paper-data="{&quot;origPos&quot;:null}" fill="#ff0000" stroke="none" stroke-width="0" stroke-linecap="butt"/><path d="M237.07707,100.69896l9.12698,3.65079" data-paper-data="{&quot;origPos&quot;:null}" fill="none" stroke="#000000" stroke-width="2.5" stroke-linecap="round"/><path d="M251.31515,104.01959l6.93651,-3.28571" data-paper-data="{&quot;origPos&quot;:null}" fill="none" stroke="#000000" stroke-width="2.5" stroke-linecap="round"/><path d="M223.06914,174.51482l15.69841,-29.57143" data-paper-data="{&quot;origPos&quot;:null}" fill="none" stroke="#54b300" stroke-width="5" stroke-linecap="round"/><path d="M240.95802,144.94338l15.69841,29.57144" data-paper-data="{&quot;origPos&quot;:null,&quot;index&quot;:null}" fill="none" stroke="#54b300" stroke-width="5" stroke-linecap="round"/><path d="M220.816,193.66511c0,0 5.69276,2.83468 9.33642,2.78029c3.99051,-0.05956 10.22519,-3.07226 10.22519,-3.07226v12.84643c0,0 -9.5216,-2.00594 -13.56031,-4.59795c-3.59546,-2.30753 -6.0013,-7.95651 -6.0013,-7.95651z" data-paper-data="{&quot;origPos&quot;:null}" fill="#54b300" stroke="#54b300" stroke-width="0" stroke-linecap="butt"/><path d="M245.52579,121.17403h6.71518l-3.09761,8.44436z" data-paper-data="{&quot;origPos&quot;:null}" fill="#ffffff" stroke="#000000" stroke-width="0" stroke-linecap="butt"/><path d="M253.56945,120.96027h6.71518l-3.09761,8.44436z" data-paper-data="{&quot;origPos&quot;:null}" fill="#ffffff" stroke="#000000" stroke-width="0" stroke-linecap="butt"/><path d="M260.23119,120.38206h-22.77322" data-paper-data="{&quot;origPos&quot;:null}" fill="none" stroke="#000000" stroke-width="1.5" stroke-linecap="round"/></g></g></g></svg>