<svg version="1.1" xmlns="http://www.w3.org/2000/svg" xmlns:xlink="http://www.w3.org/1999/xlink" width="68.23936" height="150.57533" viewBox="0,0,68.23936,150.57533"><g transform="translate(-210.38384,-94.41858)"><g data-paper-data="{&quot;isPaintingLayer&quot;:true}" fill="none" fill-rule="nonzero" stroke="none" stroke-width="none" stroke-linecap="none" stroke-linejoin="miter" stroke-miterlimit="10" stroke-dasharray="" stroke-dashoffset="0" font-family="none" font-weight="none" font-size="none" text-anchor="none" style="mix-blend-mode: normal"><path d="M238.55963,117.30263c-1.52128,-0.71905 -5.31841,-3.69475 -5.82961,-5.29787c-1.08901,-3.41515 3.13317,-7.10284 3.13317,-7.10284" data-paper-data="{&quot;origPos&quot;:null}" fill="none" stroke="#0300ff" stroke-width="2" stroke-linecap="round"/><path d="M239.88726,203.27194l-12.04762,38.91879" data-paper-data="{&quot;origPos&quot;:null}" fill="none" stroke="#9a8336" stroke-width="5" stroke-linecap="round"/><path d="M254.73805,242.49391l-12.04762,-40.15873" data-paper-data="{&quot;origPos&quot;:null}" fill="#ffc000" stroke="#9a8336" stroke-width="5" stroke-linecap="round"/><path d="M223.719,166.70344l15.69841,-29.57143" data-paper-data="{&quot;origPos&quot;:null}" fill="#ffc000" stroke="#9a8336" stroke-width="5" stroke-linecap="round"/><path d="M241.94121,137.13201l15.69841,29.57144" data-paper-data="{&quot;origPos&quot;:null,&quot;index&quot;:null}" fill="#ffc000" stroke="#9a8336" stroke-width="5" stroke-linecap="round"/><path d="M241.02986,109.73525v90.83333" data-paper-data="{&quot;origPos&quot;:null}" fill="none" stroke="#9a8336" stroke-width="5" stroke-linecap="round"/><g data-paper-data="{&quot;origPos&quot;:null}" stroke-linecap="butt"><g data-paper-data="{&quot;origPos&quot;:null}"><path d="M236.32341,107.74949v-6.86946l32.30726,-6.46145v18.98468z" data-paper-data="{&quot;origPos&quot;:null}" fill="#9a8336" stroke="none" stroke-width="0"/><path d="M260.80364,103.86929c0,-4.71363 3.82115,-8.53478 8.53478,-8.53478c4.71363,0 8.53478,3.82115 8.53478,8.53478c0,4.71363 -3.82115,8.53478 -8.53478,8.53478c-4.71363,0 -8.53478,-3.82115 -8.53478,-8.53478z" data-paper-data="{&quot;origPos&quot;:null}" fill="#fcff8f" stroke="#9a8336" stroke-width="1.5"/></g><g data-paper-data="{&quot;origPos&quot;:null}"><path d="M218.00486,109.41481v-6.86946l32.30726,-6.46145v18.98468z" data-paper-data="{&quot;origPos&quot;:null}" fill="#9a8336" stroke="none" stroke-width="0"/><path d="M242.4851,105.53461c0,-4.71363 3.82115,-8.53478 8.53478,-8.53478c4.71363,0 8.53478,3.82115 8.53478,8.53478c0,4.71363 -3.82115,8.53478 -8.53478,8.53478c-4.71363,0 -8.53478,-3.82115 -8.53478,-8.53478z" data-paper-data="{&quot;origPos&quot;:null}" fill="#fcff8f" stroke="#9a8336" stroke-width="1.5"/></g></g><path d="M237.27985,120.97257c0,0 -10.28277,6.4572 -16.72644,5.29836c-4.48799,-0.80713 -9.26975,-6.06338 -9.16797,-10.62224c0.0949,-4.2509 6.14442,-9.74678 6.14442,-9.74678" data-paper-data="{&quot;origPos&quot;:null}" fill="none" stroke="#ff0000" stroke-width="2" stroke-linecap="round"/><g data-paper-data="{&quot;origPos&quot;:null,&quot;origRot&quot;:0}" stroke="none" stroke-width="0" stroke-linecap="butt"><path d="M246.11438,123.84758l0.96672,-6.31304l4.61337,0.70645l-0.96672,6.31304z" data-paper-data="{&quot;origPos&quot;:null}" fill="#f7ff00"/><path d="M236.65797,123.39352l1.23939,-8.09364l11.3311,1.73514l-1.23939,8.09364z" data-paper-data="{&quot;origPos&quot;:null}" fill="#068400"/></g></g></g></svg>