<svg version="1.1" xmlns="http://www.w3.org/2000/svg" xmlns:xlink="http://www.w3.org/1999/xlink" width="99.24726" height="170.16209" viewBox="0,0,99.24726,170.16209"><g transform="translate(-194.37638,-75.71005)"><g data-paper-data="{&quot;isPaintingLayer&quot;:true}" fill="none" fill-rule="nonzero" stroke="none" stroke-width="none" stroke-linecap="none" stroke-linejoin="miter" stroke-miterlimit="10" stroke-dasharray="" stroke-dashoffset="0" font-family="none" font-weight="none" font-size="none" text-anchor="none" style="mix-blend-mode: normal"><path d="M197.28019,148.04879l-2.90381,-24.83078l96.34344,-11.2668l2.90382,24.83078z" data-paper-data="{&quot;origPos&quot;:null,&quot;origRot&quot;:0}" fill="#6b6b6b" stroke="none" stroke-width="0" stroke-linecap="butt"/><path d="M241.35738,137.90628v67.29708l-12.04762,38.91879" data-paper-data="{&quot;origPos&quot;:null}" fill="none" stroke="#000000" stroke-width="3.5" stroke-linecap="round"/><path d="M242.16055,203.76661l12.04762,40.15873" fill="none" stroke="#000000" stroke-width="3.5" stroke-linecap="round"/><path d="M217.26214,115.01581c0,-13.9728 11.3272,-25.3 25.3,-25.3c13.9728,0 25.3,11.3272 25.3,25.3c0,13.9728 -11.3272,25.3 -25.3,25.3c-13.9728,0 -25.3,-11.3272 -25.3,-25.3z" data-paper-data="{&quot;origPos&quot;:null}" fill="#d4d4d4" stroke="#000000" stroke-width="2.5" stroke-linecap="butt"/><path d="M250.47801,108.32534c0,-2.66149 2.15756,-4.81905 4.81905,-4.81905c2.66149,0 4.81905,2.15756 4.81905,4.81905c0,2.66149 -2.15756,4.81905 -4.81905,4.81905c-2.66149,0 -4.81905,-2.15756 -4.81905,-4.81905z" data-paper-data="{&quot;origPos&quot;:null}" fill="#000000" stroke="none" stroke-width="0" stroke-linecap="butt"/><path d="M249.73599,105.71171l8.38244,-5.13466" data-paper-data="{&quot;origPos&quot;:null,&quot;index&quot;:null,&quot;origRot&quot;:0}" fill="none" stroke="#000000" stroke-width="2.5" stroke-linecap="round"/><path d="M237.23244,109.01808c0,0 2.09623,-1.67831 3.43792,-1.68576c1.65367,-0.00918 4.23731,1.64313 4.23731,1.64313" data-paper-data="{&quot;origPos&quot;:null,&quot;origRot&quot;:0}" fill="none" stroke="#000000" stroke-width="2.5" stroke-linecap="round"/><path d="M231.35579,181.80153c0,0 1.48915,-15.67918 3.08234,-22.19437c1.80148,-7.36702 5.61607,-13.37706 5.61607,-13.37706" data-paper-data="{&quot;origPos&quot;:null}" fill="none" stroke="#000000" stroke-width="3.5" stroke-linecap="round"/><path d="M267.44308,143.80154c0,0 -1.4288,17.37579 -11.23108,18.32051c-9.80229,0.94472 -13.96733,-15.89195 -13.96733,-15.89195" data-paper-data="{&quot;origPos&quot;:null,&quot;index&quot;:null}" fill="none" stroke="#000000" stroke-width="3.5" stroke-linecap="round"/><path d="M269,155v-20.5" data-paper-data="{&quot;origPos&quot;:null}" fill="none" stroke="#6b6b6b" stroke-width="5" stroke-linecap="round"/><path d="M283.5,107.25002c0,5.38478 -2.46244,9.75 -5.5,9.75c-3.03756,0 -5.5,-4.36522 -5.5,-9.75c0,-5.38478 2.46244,-9.75 5.5,-9.75c3.03756,0 5.5,4.36522 5.5,9.75z" fill="none" stroke="#6b6b6b" stroke-width="2" stroke-linecap="butt"/><path d="M278,116.33336v-18.66667" data-paper-data="{&quot;origPos&quot;:null}" fill="none" stroke="#6b6b6b" stroke-width="2" stroke-linecap="round"/><path d="M283,106.66669h-10" data-paper-data="{&quot;origPos&quot;:null}" fill="none" stroke="#6b6b6b" stroke-width="2" stroke-linecap="round"/><g data-paper-data="{&quot;origPos&quot;:null}" stroke="#009927"><path d="M211.29261,105.99454c0,0 2.91177,-15.5818 7.73417,-21.47172c6.2175,-7.59386 13.36186,-7.33644 23.08542,-8.66929c15.48914,-2.12317 25.3533,20.02037 25.3533,20.02037z" data-paper-data="{&quot;origPos&quot;:null,&quot;origRot&quot;:0}" fill="#009927" stroke-width="0" stroke-linecap="butt"/><path d="M244.19503,142.62646l-13.26039,-40.79519" data-paper-data="{&quot;origPos&quot;:null}" fill="none" stroke-width="3" stroke-linecap="round"/></g></g></g></svg>