<svg version="1.1" xmlns="http://www.w3.org/2000/svg" xmlns:xlink="http://www.w3.org/1999/xlink" width="57.33333" height="165.1242"><g transform="translate(-213.83335,-81.4379)"><g data-paper-data="{&quot;isPaintingLayer&quot;:true}" fill="none" fill-rule="nonzero" stroke="none" stroke-width="none" stroke-linecap="none" stroke-linejoin="miter" stroke-miterlimit="10" stroke-dasharray="" stroke-dashoffset="0" font-family="none" font-weight="none" font-size="none" text-anchor="none" style="mix-blend-mode: normal"><path d="M229.33824,152.57668c0,-7.76021 6.2909,-14.05111 14.05111,-14.05111c7.76021,0 14.05111,6.29089 14.05111,14.05111c0,7.76021 -6.29089,14.05111 -14.05111,14.05111c-7.76021,0 -14.05111,-6.2909 -14.05111,-14.05111z" data-paper-data="{&quot;origPos&quot;:null}" fill="#e2f9ff" stroke="#bccace" stroke-width="0" stroke-linecap="butt"/><path d="M217.42883,115.6204c0,-13.9728 11.3272,-25.3 25.3,-25.3c13.9728,0 25.3,11.3272 25.3,25.3c0,13.9728 -11.3272,25.3 -25.3,25.3c-13.9728,0 -25.3,-11.3272 -25.3,-25.3z" data-paper-data="{&quot;origPos&quot;:null}" fill="#e2f9ff" stroke="#1800ff" stroke-width="0" stroke-linecap="butt"/><path d="M238.31137,109.5966c0,-2.66149 2.15756,-4.81905 4.81905,-4.81905c2.66149,0 4.81905,2.15756 4.81905,4.81905c0,2.66149 -2.15756,4.81905 -4.81905,4.81905c-2.66149,0 -4.81905,-2.15756 -4.81905,-4.81905z" data-paper-data="{&quot;origPos&quot;:null}" fill="#000000" stroke="none" stroke-width="0" stroke-linecap="butt"/><path d="M251.96534,109.5966c0,-2.66148 2.15757,-4.81905 4.81905,-4.81905c2.66148,0 4.81905,2.15757 4.81905,4.81905c0,2.66148 -2.15757,4.81905 -4.81905,4.81905c-2.66148,0 -4.81905,-2.15757 -4.81905,-4.81905z" data-paper-data="{&quot;origPos&quot;:null}" fill="#000000" stroke="none" stroke-width="0" stroke-linecap="butt"/><path d="M218.29569,221.8982c0,-13.6215 11.04241,-24.6639 24.6639,-24.6639c13.6215,0 24.6639,11.04241 24.6639,24.6639c0,13.6215 -11.04241,24.6639 -24.6639,24.6639c-13.6215,0 -24.6639,-11.04241 -24.6639,-24.6639z" data-paper-data="{&quot;origPos&quot;:null}" fill="#e2f9ff" stroke="#bccace" stroke-width="0" stroke-linecap="butt"/><path d="M223.72973,182.40977c0,-10.43293 8.45756,-18.89049 18.89049,-18.89049c10.43293,0 18.89049,8.45755 18.89049,18.89049c0,10.43293 -8.45755,18.89049 -18.89049,18.89049c-10.43293,0 -18.89049,-8.45756 -18.89049,-18.89049z" data-paper-data="{&quot;origPos&quot;:null}" fill="#e2f9ff" stroke="#bccace" stroke-width="0" stroke-linecap="butt"/><path d="M249.22344,123.67663v-9.00428l18.79154,4.3064z" data-paper-data="{&quot;origPos&quot;:null}" fill="#ff6e00" stroke="none" stroke-width="0" stroke-linecap="butt"/><path d="M238.26171,126.22132c0,-0.97296 0.78874,-1.76171 1.76171,-1.76171c0.97296,0 1.76171,0.78874 1.76171,1.76171c0,0.97296 -0.78874,1.76171 -1.76171,1.76171c-0.97296,0 -1.76171,-0.78874 -1.76171,-1.76171z" data-paper-data="{&quot;origPos&quot;:null}" fill="#000000" stroke="none" stroke-width="0" stroke-linecap="butt"/><path d="M241.46132,129.781c0,-0.97297 0.78875,-1.76171 1.76171,-1.76171c0.97296,0 1.76171,0.78874 1.76171,1.76171c0,0.97297 -0.78874,1.76171 -1.76171,1.76171c-0.97296,0 -1.76171,-0.78874 -1.76171,-1.76171z" data-paper-data="{&quot;origPos&quot;:null}" fill="#000000" stroke="none" stroke-width="0" stroke-linecap="butt"/><path d="M246.28127,132.08039c0,-0.97296 0.78875,-1.76171 1.76171,-1.76171c0.97296,0 1.7617,0.78874 1.7617,1.76171c0,0.97296 -0.78874,1.76171 -1.7617,1.76171c-0.97296,0 -1.76171,-0.78875 -1.76171,-1.76171z" data-paper-data="{&quot;origPos&quot;:null}" fill="#000000" stroke="none" stroke-width="0" stroke-linecap="butt"/><path d="M251.46131,132.0393c0,-0.97296 0.78875,-1.76171 1.76171,-1.76171c0.97296,0 1.76171,0.78874 1.76171,1.76171c0,0.97296 -0.78874,1.76171 -1.76171,1.76171c-0.97296,0 -1.76171,-0.78875 -1.76171,-1.76171z" data-paper-data="{&quot;origPos&quot;:null}" fill="#000000" stroke="none" stroke-width="0" stroke-linecap="butt"/><path d="M256.10124,129.83771c0,-0.97296 0.78875,-1.76171 1.76171,-1.76171c0.97296,0 1.76171,0.78874 1.76171,1.76171c0,0.97296 -0.78874,1.76171 -1.76171,1.76171c-0.97296,0 -1.76171,-0.78875 -1.76171,-1.76171z" data-paper-data="{&quot;origPos&quot;:null}" fill="#000000" stroke="none" stroke-width="0" stroke-linecap="butt"/><path d="M259.30084,125.83576c0,-0.97296 0.78875,-1.76171 1.76171,-1.76171c0.97296,0 1.76171,0.78874 1.76171,1.76171c0,0.97296 -0.78874,1.76171 -1.76171,1.76171c-0.97296,0 -1.76171,-0.78874 -1.76171,-1.76171z" data-paper-data="{&quot;origPos&quot;:null}" fill="#000000" stroke="none" stroke-width="0" stroke-linecap="butt"/><path d="M238.83335,222.77125c0,-2.11709 1.71624,-3.83333 3.83333,-3.83333c2.11709,0 3.83333,1.71624 3.83333,3.83333c0,2.11709 -1.71624,3.83333 -3.83333,3.83333c-2.11709,0 -3.83333,-1.71624 -3.83333,-3.83333z" data-paper-data="{&quot;origPos&quot;:null}" fill="#000000" stroke="none" stroke-width="0" stroke-linecap="butt"/><path d="M239.16668,203.10459c0,-2.11709 1.71625,-3.83334 3.83334,-3.83334c2.11709,0 3.83334,1.71625 3.83334,3.83334c0,2.11709 -1.71625,3.83334 -3.83334,3.83334c-2.11709,0 -3.83334,-1.71625 -3.83334,-3.83334z" data-paper-data="{&quot;origPos&quot;:null}" fill="#000000" stroke="none" stroke-width="0" stroke-linecap="butt"/><path d="M239.16668,185.10459c0,-2.11709 1.71625,-3.83334 3.83334,-3.83334c2.11709,0 3.83334,1.71625 3.83334,3.83334c0,2.11709 -1.71625,3.83334 -3.83334,3.83334c-2.11709,0 -3.83334,-1.71625 -3.83334,-3.83334z" data-paper-data="{&quot;origPos&quot;:null}" fill="#000000" stroke="none" stroke-width="0" stroke-linecap="butt"/><path d="M239.16668,168.77126c0,-2.11709 1.71625,-3.83334 3.83334,-3.83334c2.11709,0 3.83334,1.71625 3.83334,3.83334c0,2.11709 -1.71625,3.83334 -3.83334,3.83334c-2.11709,0 -3.83334,-1.71625 -3.83334,-3.83334z" data-paper-data="{&quot;origPos&quot;:null}" fill="#000000" stroke="none" stroke-width="0" stroke-linecap="butt"/><path d="M239.16668,151.77126c0,-2.11709 1.71625,-3.83334 3.83334,-3.83334c2.11709,0 3.83334,1.71625 3.83334,3.83334c0,2.11709 -1.71625,3.83334 -3.83334,3.83334c-2.11709,0 -3.83334,-1.71625 -3.83334,-3.83334z" data-paper-data="{&quot;origPos&quot;:null}" fill="#000000" stroke="none" stroke-width="0" stroke-linecap="butt"/><g data-paper-data="{&quot;origPos&quot;:null}" fill="none" stroke="#ba7200" stroke-width="2" stroke-linecap="round"><path d="M214.83335,139.27125l15.33333,10"/><path d="M217.83334,135.9379l0.66667,5"/></g><g data-paper-data="{&quot;origPos&quot;:null,&quot;index&quot;:null}" fill="none" stroke="#ba7200" stroke-width="2" stroke-linecap="round"><path d="M254.83334,150.27125l15.33334,-10"/><path d="M266.50001,141.93792l0.66667,-5"/></g><g data-paper-data="{&quot;origPos&quot;:null}" fill="#ff7c7c" stroke="none" stroke-width="0" stroke-linecap="butt"><path d="M225.16668,97.27124v-4.5h35.5v4.5z" data-paper-data="{&quot;origPos&quot;:null}"/><path d="M229.00001,93.60457l5.33333,-12.16667h17.5l5,12.16667z" data-paper-data="{&quot;origPos&quot;:null}"/></g></g></g></svg>