<svg version="1.1" xmlns="http://www.w3.org/2000/svg" xmlns:xlink="http://www.w3.org/1999/xlink" width="63.75966" height="170.16208" viewBox="0,0,63.75966,170.16208"><g transform="translate(-209.68583,-75.71005)"><g data-paper-data="{&quot;isPaintingLayer&quot;:true}" fill="none" fill-rule="nonzero" stroke="none" stroke-width="none" stroke-linecap="none" stroke-linejoin="miter" stroke-miterlimit="10" stroke-dasharray="" stroke-dashoffset="0" font-family="none" font-weight="none" font-size="none" text-anchor="none" style="mix-blend-mode: normal"><path d="M260.32472,163.86901v-5.2326v-0.33333h8.5v3.15725l4.11111,0.01559l-0.0449,2.33795z" data-paper-data="{&quot;origPos&quot;:null}" fill="#9a9a9a" stroke="#5e5e5e" stroke-width="1" stroke-linecap="butt"/><path d="M241.35738,137.90626v67.29708l-12.04762,38.91879" data-paper-data="{&quot;origPos&quot;:null}" fill="none" stroke="#000000" stroke-width="3.5" stroke-linecap="round"/><path d="M233.97619,177.85714l1,-16h5.75l-1.14286,16z" data-paper-data="{&quot;origPos&quot;:null}" fill="#9a9a9a" stroke="#5e5e5e" stroke-width="1" stroke-linecap="butt"/><path d="M242.16055,203.76658l12.04762,40.15873" fill="none" stroke="#000000" stroke-width="3.5" stroke-linecap="round"/><path d="M217.26214,115.01578c0,-13.9728 11.3272,-25.3 25.3,-25.3c13.9728,0 25.3,11.3272 25.3,25.3c0,13.9728 -11.3272,25.3 -25.3,25.3c-13.9728,0 -25.3,-11.3272 -25.3,-25.3z" data-paper-data="{&quot;origPos&quot;:null}" fill="#d4d4d4" stroke="#000000" stroke-width="2.5" stroke-linecap="butt"/><path d="M238.14468,108.99198c0,-2.66149 2.15756,-4.81905 4.81905,-4.81905c2.66149,0 4.81905,2.15756 4.81905,4.81905c0,2.66149 -2.15756,4.81905 -4.81905,4.81905c-2.66149,0 -4.81905,-2.15756 -4.81905,-4.81905z" data-paper-data="{&quot;origPos&quot;:null}" fill="#000000" stroke="none" stroke-width="0" stroke-linecap="butt"/><path d="M251.79864,108.99198c0,-2.66148 2.15757,-4.81905 4.81905,-4.81905c2.66148,0 4.81905,2.15757 4.81905,4.81905c0,2.66148 -2.15757,4.81905 -4.81905,4.81905c-2.66148,0 -4.81905,-2.15757 -4.81905,-4.81905z" data-paper-data="{&quot;origPos&quot;:null}" fill="#000000" stroke="none" stroke-width="0" stroke-linecap="butt"/><path d="M238.36372,101.98563l9.12698,3.65079" data-paper-data="{&quot;origPos&quot;:null}" fill="none" stroke="#000000" stroke-width="2.5" stroke-linecap="round"/><path d="M259.53832,102.02055l-6.93651,3.28571" data-paper-data="{&quot;origPos&quot;:null}" fill="none" stroke="#000000" stroke-width="2.5" stroke-linecap="round"/><path d="M237.10579,170.5515c0,0 -17.17569,-6.05858 -13.90237,-12.2246c2.86873,-5.40391 16.85078,-12.09683 16.85078,-12.09683" data-paper-data="{&quot;origPos&quot;:null}" fill="none" stroke="#000000" stroke-width="3.5" stroke-linecap="round"/><path d="M264.94308,165.30151c0,0 -12.55212,3.54136 -15.20977,-1.46492c-2.92254,-5.50525 -7.48864,-17.60652 -7.48864,-17.60652" data-paper-data="{&quot;origPos&quot;:null,&quot;index&quot;:null}" fill="none" stroke="#000000" stroke-width="3.5" stroke-linecap="round"/><path d="M251.22711,176.72195l-2.41475,-13.96544l4.59644,-0.49065l2.30055,13.97763z" data-paper-data="{&quot;origPos&quot;:null,&quot;index&quot;:null,&quot;origRot&quot;:0}" fill="#9a9a9a" stroke="#5e5e5e" stroke-width="1" stroke-linecap="butt"/><path d="M226.43583,164.75789v-9.25h34v9.25z" data-paper-data="{&quot;origPos&quot;:null}" fill="#ff7800" stroke="none" stroke-width="0" stroke-linecap="butt"/><path d="M210.18583,170.75789v-13h16.5l0.03749,4.46267z" data-paper-data="{&quot;origPos&quot;:null}" fill="#9a9a9a" stroke="#5e5e5e" stroke-width="1" stroke-linecap="butt"/><g data-paper-data="{&quot;origPos&quot;:null}" stroke="#009927"><path d="M211.29261,105.99453c0,0 2.91177,-15.5818 7.73417,-21.47172c6.2175,-7.59386 13.36186,-7.33644 23.08542,-8.66929c15.48914,-2.12317 25.3533,20.02037 25.3533,20.02037z" data-paper-data="{&quot;origPos&quot;:null,&quot;origRot&quot;:0}" fill="#009927" stroke-width="0" stroke-linecap="butt"/><path d="M244.19503,142.62646l-13.26038,-40.79519" data-paper-data="{&quot;origPos&quot;:null}" fill="none" stroke-width="3" stroke-linecap="round"/></g></g></g></svg>