<svg version="1.1" xmlns="http://www.w3.org/2000/svg" xmlns:xlink="http://www.w3.org/1999/xlink" width="55.59935" height="157.40634"><defs><radialGradient cx="257.48787" cy="175.65561" r="11.5352" gradientUnits="userSpaceOnUse" id="color-1"><stop offset="0" stop-color="#4fffff"/><stop offset="1" stop-color="#4fffff" stop-opacity="0"/></radialGradient><radialGradient cx="224.95891" cy="176.2167" r="11.53519" gradientUnits="userSpaceOnUse" id="color-2"><stop offset="0" stop-color="#4fffff"/><stop offset="1" stop-color="#4fffff" stop-opacity="0"/></radialGradient></defs><g transform="translate(-213.7842,-88.82297)"><g data-paper-data="{&quot;isPaintingLayer&quot;:true}" fill="none" fill-rule="nonzero" stroke="none" stroke-width="none" stroke-linecap="none" stroke-linejoin="miter" stroke-miterlimit="10" stroke-dasharray="" stroke-dashoffset="0" font-family="none" font-weight="none" font-size="none" text-anchor="none" style="mix-blend-mode: normal"><path d="M241.61428,138.26344v67.29708l-12.04762,38.91879" data-paper-data="{&quot;origPos&quot;:null}" fill="none" stroke="#008080" stroke-width="3.5" stroke-linecap="round"/><path d="M242.41745,204.12377l12.04762,40.15873" fill="none" stroke="#008080" stroke-width="3.5" stroke-linecap="round"/><path d="M217.51903,115.37297c0,-13.9728 11.3272,-25.3 25.3,-25.3c13.9728,0 25.3,11.3272 25.3,25.3c0,13.9728 -11.3272,25.3 -25.3,25.3c-13.9728,0 -25.3,-11.3272 -25.3,-25.3z" data-paper-data="{&quot;origPos&quot;:null}" fill="#d8ffff" stroke="#008080" stroke-width="2.5" stroke-linecap="butt"/><path d="M238.40157,109.34917c0,-2.66149 2.15756,-4.81905 4.81905,-4.81905c2.66149,0 4.81905,2.15756 4.81905,4.81905c0,2.66149 -2.15756,4.81905 -4.81905,4.81905c-2.66149,0 -4.81905,-2.15756 -4.81905,-4.81905z" data-paper-data="{&quot;origPos&quot;:null}" fill="#008080" stroke="#008080" stroke-width="0" stroke-linecap="butt"/><path d="M252.05554,109.34917c0,-2.66148 2.15757,-4.81905 4.81905,-4.81905c2.66148,0 4.81905,2.15757 4.81905,4.81905c0,2.66148 -2.15757,4.81905 -4.81905,4.81905c-2.66148,0 -4.81905,-2.15757 -4.81905,-4.81905z" data-paper-data="{&quot;origPos&quot;:null}" fill="#008080" stroke="#008080" stroke-width="0" stroke-linecap="butt"/><path d="M247.7476,105.99361l-9.12698,-3.65079" data-paper-data="{&quot;origPos&quot;:null}" fill="none" stroke="#008080" stroke-width="2.5" stroke-linecap="round"/><path d="M252.85871,105.66345l6.93651,-3.28571" data-paper-data="{&quot;origPos&quot;:null}" fill="none" stroke="#008080" stroke-width="2.5" stroke-linecap="round"/><path d="M240.3111,146.58726l-15.69841,29.57143" data-paper-data="{&quot;origPos&quot;:null}" fill="none" stroke="#008080" stroke-width="3.5" stroke-linecap="round"/><path d="M242.50157,146.58726l15.69841,29.57144" data-paper-data="{&quot;origPos&quot;:null,&quot;index&quot;:null}" fill="none" stroke="#008080" stroke-width="3.5" stroke-linecap="round"/><path d="M246.31316,175.29513c0,-6.37071 5.16448,-11.53519 11.53519,-11.53519c6.37071,0 11.5352,5.16448 11.5352,11.53519c0,6.37071 -5.16449,11.53519 -11.5352,11.53519c-6.37071,0 -11.53519,-5.16448 -11.53519,-11.53519z" data-paper-data="{&quot;origPos&quot;:null}" fill="url(#color-1)" stroke="none" stroke-width="0" stroke-linecap="butt"/><path d="M213.7842,175.85622c0,-6.37071 5.16448,-11.53519 11.53519,-11.53519c6.37071,0 11.5352,5.16448 11.5352,11.53519c0,6.37071 -5.16449,11.53519 -11.5352,11.53519c-6.37071,0 -11.53519,-5.16448 -11.53519,-11.53519z" data-paper-data="{&quot;origPos&quot;:null}" fill="url(#color-2)" stroke="none" stroke-width="0" stroke-linecap="butt"/></g></g></svg>