<svg version="1.1" xmlns="http://www.w3.org/2000/svg" xmlns:xlink="http://www.w3.org/1999/xlink" width="58.04727" height="157.40634"><g transform="translate(-214.03744,-88.46583)"><g data-paper-data="{&quot;isPaintingLayer&quot;:true}" fill="none" fill-rule="nonzero" stroke="none" stroke-width="none" stroke-linecap="none" stroke-linejoin="miter" stroke-miterlimit="10" stroke-dasharray="" stroke-dashoffset="0" font-family="none" font-weight="none" font-size="none" text-anchor="none" style="mix-blend-mode: normal"><g><path d="M241.35741,137.9063v67.29708l-12.04762,38.91879" data-paper-data="{&quot;origPos&quot;:null}" fill="none" stroke="#000000" stroke-width="3.5" stroke-linecap="round"/><path d="M254.2082,243.92537l-12.04762,-40.15873" fill="none" stroke="#000000" stroke-width="3.5" stroke-linecap="round"/><path d="M217.26216,115.01584c0,-13.9728 11.3272,-25.3 25.3,-25.3c13.9728,0 25.3,11.3272 25.3,25.3c0,13.9728 -11.3272,25.3 -25.3,25.3c-13.9728,0 -25.3,-11.3272 -25.3,-25.3z" data-paper-data="{&quot;origPos&quot;:null}" fill="#d4d4d4" stroke="#000000" stroke-width="2.5" stroke-linecap="butt"/><path d="M238.1447,108.99204c0,-2.66149 2.15756,-4.81905 4.81905,-4.81905c2.66149,0 4.81905,2.15756 4.81905,4.81905c0,2.66149 -2.15756,4.81905 -4.81905,4.81905c-2.66149,0 -4.81905,-2.15756 -4.81905,-4.81905z" data-paper-data="{&quot;origPos&quot;:null}" fill="#000000" stroke="none" stroke-width="0" stroke-linecap="butt"/><path d="M251.79867,108.99204c0,-2.66148 2.15757,-4.81905 4.81905,-4.81905c2.66148,0 4.81905,2.15757 4.81905,4.81905c0,2.66148 -2.15757,4.81905 -4.81905,4.81905c-2.66148,0 -4.81905,-2.15757 -4.81905,-4.81905z" data-paper-data="{&quot;origPos&quot;:null}" fill="#000000" stroke="none" stroke-width="0" stroke-linecap="butt"/><path d="M238.36375,101.98569l9.12698,3.65079" data-paper-data="{&quot;origPos&quot;:null}" fill="none" stroke="#000000" stroke-width="2.5" stroke-linecap="round"/><path d="M252.60184,105.30632l6.93651,-3.28571" data-paper-data="{&quot;origPos&quot;:null}" fill="none" stroke="#000000" stroke-width="2.5" stroke-linecap="round"/><path d="M224.35582,175.80156l15.69841,-29.57143" data-paper-data="{&quot;origPos&quot;:null}" fill="none" stroke="#000000" stroke-width="3.5" stroke-linecap="round"/><path d="M260.94311,158.30156c0,0 -8.35535,13.57481 -11.303,8.02224c-3.17885,-5.98807 -7.39541,-20.09368 -7.39541,-20.09368" data-paper-data="{&quot;origPos&quot;:null,&quot;index&quot;:null}" fill="none" stroke="#000000" stroke-width="3.5" stroke-linecap="round"/><path d="M218.8126,190.06534c0,0 0.36284,-4.16554 1.03001,-6.28788c1.02553,-3.26232 3.30735,-7.50963 3.30735,-7.50963" data-paper-data="{&quot;origPos&quot;:null}" fill="none" stroke="#a2a2a2" stroke-width="1.5" stroke-linecap="round"/><path d="M221.92373,190.85084c0,0 -0.16044,-4.17823 0.23634,-6.3673c0.60991,-3.36488 2.34319,-7.864 2.34319,-7.864" data-paper-data="{&quot;origPos&quot;:null,&quot;origRot&quot;:0}" fill="none" stroke="#a2a2a2" stroke-width="1.5" stroke-linecap="round"/><path d="M225.74153,191.14588c0,0 -0.8798,-4.0877 -0.86714,-6.3124c0.01948,-3.41965 0.94949,-8.15055 0.94949,-8.15055" data-paper-data="{&quot;origPos&quot;:null,&quot;origRot&quot;:0}" fill="none" stroke="#a2a2a2" stroke-width="1.5" stroke-linecap="round"/><path d="M266.32307,139.52249c0,0 -0.26664,5.44033 -0.88468,8.22669c-0.95,4.28298 -3.13322,9.88763 -3.13322,9.88763" data-paper-data="{&quot;origPos&quot;:null}" fill="none" stroke="#a4a4a4" stroke-width="1.5" stroke-linecap="round"/><path d="M263.19464,138.59224c0,0 0.25679,5.44113 -0.08939,8.30632c-0.53212,4.40417 -2.16114,10.32053 -2.16114,10.32053" data-paper-data="{&quot;origPos&quot;:null,&quot;origRot&quot;:0}" fill="none" stroke="#a4a4a4" stroke-width="1.5" stroke-linecap="round"/><path d="M259.37104,138.32252c0,0 0.97388,5.30149 1.01254,8.20158c0.05943,4.45781 -0.7612,10.6521 -0.7612,10.6521" data-paper-data="{&quot;origPos&quot;:null,&quot;origRot&quot;:0}" fill="none" stroke="#a4a4a4" stroke-width="1.5" stroke-linecap="round"/><path d="M271.33471,142.97828c0,0 -1.81474,5.13566 -3.20547,7.62798c-2.13772,3.83101 -5.83573,8.57476 -5.83573,8.57476" data-paper-data="{&quot;origPos&quot;:null,&quot;origRot&quot;:0}" fill="none" stroke="#a4a4a4" stroke-width="1.5" stroke-linecap="round"/><path d="M214.78744,187.05791c0,0 1.63196,-3.84969 2.92215,-5.6621c1.9832,-2.78592 5.46553,-6.12055 5.46553,-6.12055" data-paper-data="{&quot;origPos&quot;:null,&quot;origRot&quot;:0}" fill="none" stroke="#a2a2a2" stroke-width="1.5" stroke-linecap="round"/></g></g></g></svg>