<svg version="1.1" xmlns="http://www.w3.org/2000/svg" xmlns:xlink="http://www.w3.org/1999/xlink" width="53.1" height="157.40633"><g transform="translate(-215.95001,-89.04686)"><g data-paper-data="{&quot;isPaintingLayer&quot;:true}" fill="none" fill-rule="nonzero" stroke="none" stroke-width="none" stroke-linecap="none" stroke-linejoin="miter" stroke-miterlimit="10" stroke-dasharray="" stroke-dashoffset="0" font-family="none" font-weight="none" font-size="none" text-anchor="none" style="mix-blend-mode: normal"><g><path d="M241.29528,138.48732v67.29708l-12.04762,38.91879" data-paper-data="{&quot;origPos&quot;:null}" fill="none" stroke="#000000" stroke-width="3.5" stroke-linecap="round"/><path d="M254.14607,244.50639l-12.04762,-40.15873" fill="none" stroke="#000000" stroke-width="3.5" stroke-linecap="round"/><path d="M217.20001,115.59686c0,-13.9728 11.3272,-25.3 25.3,-25.3c13.9728,0 25.3,11.3272 25.3,25.3c0,13.9728 -11.3272,25.3 -25.3,25.3c-13.9728,0 -25.3,-11.3272 -25.3,-25.3z" data-paper-data="{&quot;origPos&quot;:null}" fill="#cdeabf" stroke="#000000" stroke-width="2.5" stroke-linecap="butt"/><path d="M238.08255,109.57306c0,-2.66149 2.15756,-4.81905 4.81905,-4.81905c2.66149,0 4.81905,2.15756 4.81905,4.81905c0,2.66149 -2.15756,4.81905 -4.81905,4.81905c-2.66149,0 -4.81905,-2.15756 -4.81905,-4.81905z" data-paper-data="{&quot;origPos&quot;:null}" fill="#ff0000" stroke="none" stroke-width="0" stroke-linecap="butt"/><path d="M251.73654,109.57306c0,-2.66148 2.15757,-4.81905 4.81905,-4.81905c2.66148,0 4.81905,2.15757 4.81905,4.81905c0,2.66148 -2.15757,4.81905 -4.81905,4.81905c-2.66148,0 -4.81905,-2.15757 -4.81905,-4.81905z" data-paper-data="{&quot;origPos&quot;:null}" fill="#ff0000" stroke="none" stroke-width="0" stroke-linecap="butt"/><path d="M247.4286,106.2175l-9.12698,-3.65079" data-paper-data="{&quot;origPos&quot;:null}" fill="none" stroke="#000000" stroke-width="2.5" stroke-linecap="round"/><path d="M259.47622,102.60163l-6.93651,3.28571" data-paper-data="{&quot;origPos&quot;:null}" fill="none" stroke="#000000" stroke-width="2.5" stroke-linecap="round"/><path d="M263.71271,158.31591c0,0 -12.96692,-0.54894 -21.02259,-5.95405c-1.98215,-1.32996 -1.36472,-5.55071 -1.36472,-5.55071" data-paper-data="{&quot;origPos&quot;:null}" fill="none" stroke="#000000" stroke-width="3.5" stroke-linecap="round"/><path d="M243.51588,145.81114c0,0 3.73119,-0.3093 5.79017,0.07791c6.17694,1.16166 16.70824,3.09353 16.70824,3.09353" data-paper-data="{&quot;origPos&quot;:null,&quot;index&quot;:null}" fill="none" stroke="#000000" stroke-width="3.5" stroke-linecap="round"/><path d="M258.43788,123.53938c0,3.47479 -3.46979,6.29167 -7.75,6.29167c-4.28021,0 -7.75,-2.81688 -7.75,-6.29167c0,-3.47479 3.46979,-6.29167 7.75,-6.29167c4.28021,0 7.75,2.81688 7.75,6.29167z" data-paper-data="{&quot;origPos&quot;:null}" fill="#ff0000" stroke="#000000" stroke-width="1" stroke-linecap="butt"/><path d="M245.14117,118.72818l2.2756,-0.36593c0,0 1.16848,2.53435 -0.32525,2.77455c-1.49373,0.24019 -1.95036,-2.40862 -1.95036,-2.40862z" data-paper-data="{&quot;origPos&quot;:null,&quot;origRot&quot;:0}" fill="#e9e9e9" stroke="none" stroke-width="0" stroke-linecap="butt"/><path d="M248.21364,117.9401l2.31903,-0.21976c0,0 0.76147,3.13529 -0.76076,3.27954c-1.52222,0.14426 -1.55827,-3.05978 -1.55827,-3.05978z" data-paper-data="{&quot;origPos&quot;:null,&quot;origRot&quot;:0,&quot;index&quot;:null}" fill="#e9e9e9" stroke="none" stroke-width="0" stroke-linecap="butt"/><path d="M251.53342,117.75601l2.32613,0.14906c0,0 0.05473,3.05634 -1.47215,2.9585c-1.52688,-0.09784 -0.85398,-3.10756 -0.85398,-3.10756z" data-paper-data="{&quot;origPos&quot;:null,&quot;origRot&quot;:0,&quot;index&quot;:null}" fill="#e9e9e9" stroke="none" stroke-width="0" stroke-linecap="butt"/><path d="M254.68703,118.76652l2.18354,0.67432c0,0 -0.992,2.97201 -2.42528,2.52938c-1.43329,-0.44263 0.24175,-3.2037 0.24175,-3.2037z" data-paper-data="{&quot;origPos&quot;:null,&quot;origRot&quot;:0}" fill="#e9e9e9" stroke="none" stroke-width="0" stroke-linecap="butt"/><path d="M252.24455,126.18699c1.52688,-0.10233 1.47215,3.0944 1.47215,3.0944l-2.32613,0.15591c0,0 -0.6729,-3.14798 0.85398,-3.25031z" data-paper-data="{&quot;origPos&quot;:null,&quot;origRot&quot;:0,&quot;index&quot;:null}" fill="#e9e9e9" stroke="none" stroke-width="0" stroke-linecap="butt"/><path d="M250.45497,129.43729l-2.32613,-0.17645c0,0 -0.05474,-3.61794 1.47214,-3.50212c1.52688,0.11582 0.85398,3.67857 0.85398,3.67857z" data-paper-data="{&quot;origPos&quot;:null,&quot;origRot&quot;:0,&quot;index&quot;:null}" fill="#e9e9e9" stroke="none" stroke-width="0" stroke-linecap="butt"/><path d="M254.52093,125.13506c1.42362,-0.50384 2.47887,2.71363 2.47887,2.71363l-2.16881,0.76758c0,0 -1.73368,-2.97736 -0.31006,-3.48121z" data-paper-data="{&quot;origPos&quot;:null,&quot;origRot&quot;:0,&quot;index&quot;:null}" fill="#e9e9e9" stroke="none" stroke-width="0" stroke-linecap="butt"/><path d="M247.27134,128.47341l-2.16881,-0.67451c0,0 1.05525,-2.82737 2.47887,-2.38461c1.42362,0.44276 -0.31006,3.05913 -0.31006,3.05913z" data-paper-data="{&quot;origPos&quot;:null,&quot;origRot&quot;:0,&quot;index&quot;:null}" fill="#e9e9e9" stroke="none" stroke-width="0" stroke-linecap="butt"/><path d="M220.93787,123.0096c0,0 1.02342,-5.96871 2.70353,-10.53861c1.11923,-3.04431 4.43932,-8.88996 4.43932,-8.88996" data-paper-data="{&quot;origPos&quot;:null}" fill="none" stroke="#de0000" stroke-width="1" stroke-linecap="round"/><path d="M223.84459,123.72617c0,0 1.14955,-5.55615 2.60426,-9.51297c0.9759,-2.65446 3.62388,-7.4276 3.62388,-7.4276" data-paper-data="{&quot;origPos&quot;:null}" fill="none" stroke="#de0000" stroke-width="1" stroke-linecap="round"/><path d="M227.19249,123.58446c0,0 0.76336,-3.95356 1.79902,-6.77055c0.69478,-1.8898 2.63501,-5.29002 2.63501,-5.29002" data-paper-data="{&quot;origPos&quot;:null}" fill="none" stroke="#de0000" stroke-width="1" stroke-linecap="round"/></g></g></g></svg>